<?xml version="1.0" encoding="UTF-8" standalone="no"?>
<!DOCTYPE svg PUBLIC "-//W3C//DTD SVG 1.1//EN"
 "http://www.w3.org/Graphics/SVG/1.1/DTD/svg11.dtd">
<!-- Generated by graphviz version 14.1.1 (20251213.1925)
 -->
<!-- Title: MultiArchitectureTransition Pages: 1 -->
<svg width="2662pt" height="490pt"
 viewBox="0.00 0.00 2662.00 490.00" xmlns="http://www.w3.org/2000/svg" xmlns:xlink="http://www.w3.org/1999/xlink">
<g id="graph0" class="graph" transform="scale(1 1) rotate(0) translate(18 472)">
<title>MultiArchitectureTransition</title>
<polygon fill="#f7f9fc" stroke="none" points="-18,18 -18,-472 2643.83,-472 2643.83,18 -18,18"/>
<text xml:space="preserve" text-anchor="middle" x="1312.91" y="-427.2" font-family="Arial Bold" font-size="24.00">Connector ID &#45; Transition from ResNet Baseline to Multi&#45;Architecture Vision Pipeline</text>
<g id="clust1" class="cluster">
<title>cluster_baseline</title>
<path fill="#edf6ff" stroke="#527aa3" d="M20,-316C20,-316 840.74,-316 840.74,-316 846.74,-316 852.74,-322 852.74,-328 852.74,-328 852.74,-399 852.74,-399 852.74,-405 846.74,-411 840.74,-411 840.74,-411 20,-411 20,-411 14,-411 8,-405 8,-399 8,-399 8,-328 8,-328 8,-322 14,-316 20,-316"/>
<text xml:space="preserve" text-anchor="middle" x="430.37" y="-391.8" font-family="Arial Bold" font-size="16.00">Current Baseline</text>
</g>
<g id="clust2" class="cluster">
<title>cluster_detection</title>
<path fill="#fff7df" stroke="#be8b00" d="M303.9,-125C303.9,-125 612.34,-125 612.34,-125 618.34,-125 624.34,-131 624.34,-137 624.34,-137 624.34,-296 624.34,-296 624.34,-302 618.34,-308 612.34,-308 612.34,-308 303.9,-308 303.9,-308 297.9,-308 291.9,-302 291.9,-296 291.9,-296 291.9,-137 291.9,-137 291.9,-131 297.9,-125 303.9,-125"/>
<text xml:space="preserve" text-anchor="middle" x="458.12" y="-288.8" font-family="Arial Bold" font-size="16.00">Object Detection Track</text>
</g>
<g id="clust3" class="cluster">
<title>cluster_classifier</title>
<path fill="#f4ecfb" stroke="#8c67aa" d="M699.09,-8C699.09,-8 1065.65,-8 1065.65,-8 1071.65,-8 1077.65,-14 1077.65,-20 1077.65,-20 1077.65,-227 1077.65,-227 1077.65,-233 1071.65,-239 1065.65,-239 1065.65,-239 699.09,-239 699.09,-239 693.09,-239 687.09,-233 687.09,-227 687.09,-227 687.09,-20 687.09,-20 687.09,-14 693.09,-8 699.09,-8"/>
<text xml:space="preserve" text-anchor="middle" x="882.37" y="-219.8" font-family="Arial Bold" font-size="16.00">Fine&#45;Grained Attribute Classification Track</text>
</g>
<g id="clust4" class="cluster">
<title>cluster_verification</title>
<path fill="#ecfaed" stroke="#5a9b62" d="M1213.15,-49C1213.15,-49 1908.74,-49 1908.74,-49 1914.74,-49 1920.74,-55 1920.74,-61 1920.74,-61 1920.74,-294 1920.74,-294 1920.74,-300 1914.74,-306 1908.74,-306 1908.74,-306 1213.15,-306 1213.15,-306 1207.15,-306 1201.15,-300 1201.15,-294 1201.15,-294 1201.15,-61 1201.15,-61 1201.15,-55 1207.15,-49 1213.15,-49"/>
<text xml:space="preserve" text-anchor="middle" x="1560.94" y="-286.8" font-family="Arial Bold" font-size="16.00">Verification and Decision Layer</text>
</g>
<g id="clust5" class="cluster">
<title>cluster_outputs</title>
<path fill="#f0efff" stroke="#6d6aa5" d="M2007.49,-145C2007.49,-145 2605.83,-145 2605.83,-145 2611.83,-145 2617.83,-151 2617.83,-157 2617.83,-157 2617.83,-302 2617.83,-302 2617.83,-308 2611.83,-314 2605.83,-314 2605.83,-314 2007.49,-314 2007.49,-314 2001.49,-314 1995.49,-308 1995.49,-302 1995.49,-302 1995.49,-157 1995.49,-157 1995.49,-151 2001.49,-145 2007.49,-145"/>
<text xml:space="preserve" text-anchor="middle" x="2306.66" y="-294.8" font-family="Arial Bold" font-size="16.00">Deployment Decision</text>
</g>
<!-- image&#45;&gt;hough -->
<g id="edge1" class="edge">
<title>image&#45;&gt;hough</title>
<path fill="none" stroke="#56677a" stroke-width="1.6" d="M164.46,-346.15C202.4,-347.78 248.8,-349.77 288,-351.45"/>
<polygon fill="#56677a" stroke="#56677a" stroke-width="1.6" points="287.79,-354.24 295.9,-351.79 288.03,-348.65 287.79,-354.24"/>
<text xml:space="preserve" text-anchor="middle" x="231.28" y="-352.93" font-family="Arial" font-size="10.00">current</text>
</g>
<!-- image&#45;&gt;yolo -->
<g id="edge4" class="edge">
<title>image&#45;&gt;yolo</title>
<path fill="none" stroke="#b98200" stroke-width="1.6" stroke-dasharray="5,2" d="M113.99,-322.97C133.79,-306.17 163.38,-281.97 190.78,-263 233.75,-233.26 246.6,-229.05 291.9,-203 298.8,-199.04 306.05,-194.92 313.26,-190.87"/>
<polygon fill="#b98200" stroke="#b98200" stroke-width="1.6" points="314.61,-193.32 320.22,-186.97 311.87,-188.44 314.61,-193.32"/>
<text xml:space="preserve" text-anchor="middle" x="231.28" y="-265.5" font-family="Arial" font-size="10.00">new detector track</text>
</g>
<!-- image&#45;&gt;rtdetr -->
<g id="edge5" class="edge">
<title>image&#45;&gt;rtdetr</title>
<path fill="none" stroke="#b98200" stroke-width="1.6" stroke-dasharray="5,2" d="M149.25,-322.99C190.62,-308.81 246.6,-289.62 291.95,-274.07"/>
<polygon fill="#b98200" stroke="#b98200" stroke-width="1.6" points="292.8,-276.74 299.46,-271.5 290.99,-271.44 292.8,-276.74"/>
<text xml:space="preserve" text-anchor="middle" x="231.28" y="-308.92" font-family="Arial" font-size="10.00">alternate detector</text>
</g>
<!-- hough&#45;&gt;resnet -->
<g id="edge2" class="edge">
<title>hough&#45;&gt;resnet</title>
<path fill="none" stroke="#56677a" stroke-width="1.6" d="M445.64,-353.03C460.01,-352.64 475.05,-352.23 489.27,-351.85"/>
<polygon fill="#56677a" stroke="#56677a" stroke-width="1.6" points="489.12,-354.65 497.04,-351.64 488.97,-349.06 489.12,-354.65"/>
</g>
<!-- resnet&#45;&gt;legacy_json -->
<g id="edge3" class="edge">
<title>resnet&#45;&gt;legacy_json</title>
<path fill="none" stroke="#56677a" stroke-width="1.6" d="M617.75,-350C640.38,-350 666.69,-350 691.13,-350"/>
<polygon fill="#56677a" stroke="#56677a" stroke-width="1.6" points="691.05,-352.8 699.05,-350 691.05,-347.2 691.05,-352.8"/>
</g>
<!-- resnet&#45;&gt;multihead -->
<g id="edge11" class="edge">
<title>resnet&#45;&gt;multihead</title>
<path fill="none" stroke="#527aa3" stroke-width="1.6" d="M617.63,-324.43C639.41,-314.86 664.37,-303.91 687.09,-294 765.16,-259.95 854.78,-221.18 915.62,-194.9"/>
<polygon fill="#527aa3" stroke="#527aa3" stroke-width="1.6" points="916.67,-197.5 922.91,-191.76 914.45,-192.36 916.67,-197.5"/>
<text xml:space="preserve" text-anchor="middle" x="773.48" y="-296.5" font-family="Arial" font-size="10.00">baseline comparison</text>
</g>
<!-- legacy_json&#45;&gt;final_json -->
<g id="edge26" class="edge">
<title>legacy_json&#45;&gt;final_json</title>
<path fill="none" stroke="#527aa3" stroke-width="1.6" d="M845.41,-350C886.78,-350 939.98,-350 987.26,-350 987.26,-350 987.26,-350 2346.16,-350 2404.72,-350 2463.69,-314.11 2500.91,-285.99"/>
<polygon fill="#527aa3" stroke="#527aa3" stroke-width="1.6" points="2502.43,-288.35 2507.05,-281.24 2499.01,-283.92 2502.43,-288.35"/>
<text xml:space="preserve" text-anchor="middle" x="1734.96" y="-352.5" font-family="Arial" font-size="10.00">compatibility preserved</text>
</g>
<!-- yolo&#45;&gt;detector_metrics -->
<g id="edge6" class="edge">
<title>yolo&#45;&gt;detector_metrics</title>
<path fill="none" stroke="#56677a" stroke-width="1.6" d="M444.58,-159C459.57,-159 475.33,-159 490.16,-159"/>
<polygon fill="#56677a" stroke="#56677a" stroke-width="1.6" points="489.83,-161.8 497.83,-159 489.83,-156.2 489.83,-161.8"/>
</g>
<!-- rtdetr&#45;&gt;detector_metrics -->
<g id="edge7" class="edge">
<title>rtdetr&#45;&gt;detector_metrics</title>
<path fill="none" stroke="#56677a" stroke-width="1.6" d="M429.07,-220.24C448.95,-210.77 471.48,-200.03 492.07,-190.22"/>
<polygon fill="#56677a" stroke="#56677a" stroke-width="1.6" points="493.17,-192.8 499.18,-186.83 490.76,-187.74 493.17,-192.8"/>
</g>
<!-- detector_metrics&#45;&gt;efficientnet -->
<g id="edge8" class="edge">
<title>detector_metrics&#45;&gt;efficientnet</title>
<path fill="none" stroke="#b98200" stroke-width="1.6" stroke-dasharray="5,2" d="M616.91,-145.8C638.36,-140.87 663.21,-135.15 686.67,-129.75"/>
<polygon fill="#b98200" stroke="#b98200" stroke-width="1.6" points="687.1,-132.52 694.26,-128 685.84,-127.07 687.1,-132.52"/>
<text xml:space="preserve" text-anchor="middle" x="656.09" y="-141.39" font-family="Arial" font-size="10.00">crops</text>
</g>
<!-- detector_metrics&#45;&gt;mobilenet -->
<g id="edge9" class="edge">
<title>detector_metrics&#45;&gt;mobilenet</title>
<path fill="none" stroke="#b98200" stroke-width="1.6" stroke-dasharray="5,2" d="M595.6,-132.22C620.57,-114.29 654.98,-90.8 687.09,-73 695.82,-68.16 705.28,-63.46 714.62,-59.1"/>
<polygon fill="#b98200" stroke="#b98200" stroke-width="1.6" points="715.57,-61.74 721.69,-55.87 713.25,-56.65 715.57,-61.74"/>
<text xml:space="preserve" text-anchor="middle" x="656.09" y="-99.46" font-family="Arial" font-size="10.00">crops</text>
</g>
<!-- detector_metrics&#45;&gt;convnext -->
<g id="edge10" class="edge">
<title>detector_metrics&#45;&gt;convnext</title>
<path fill="none" stroke="#b98200" stroke-width="1.6" stroke-dasharray="5,2" d="M616.91,-166C637.72,-168.54 661.75,-171.48 684.59,-174.27"/>
<polygon fill="#b98200" stroke="#b98200" stroke-width="1.6" points="683.96,-177.01 692.24,-175.2 684.64,-171.45 683.96,-177.01"/>
<text xml:space="preserve" text-anchor="middle" x="656.09" y="-174.5" font-family="Arial" font-size="10.00">crops</text>
</g>
<!-- efficientnet&#45;&gt;multihead -->
<g id="edge12" class="edge">
<title>efficientnet&#45;&gt;multihead</title>
<path fill="none" stroke="#56677a" stroke-width="1.6" d="M850.4,-129.27C865.28,-133.04 881.03,-137.04 896.34,-140.93"/>
<polygon fill="#56677a" stroke="#56677a" stroke-width="1.6" points="895.54,-143.61 903.98,-142.87 896.92,-138.18 895.54,-143.61"/>
</g>
<!-- mobilenet&#45;&gt;multihead -->
<g id="edge13" class="edge">
<title>mobilenet&#45;&gt;multihead</title>
<path fill="none" stroke="#56677a" stroke-width="1.6" d="M818.52,-55.02C829.84,-60.54 841.89,-66.73 852.74,-73 883.57,-90.79 916.7,-113.16 942.37,-131.27"/>
<polygon fill="#56677a" stroke="#56677a" stroke-width="1.6" points="940.66,-133.49 948.8,-135.83 943.9,-128.92 940.66,-133.49"/>
</g>
<!-- convnext&#45;&gt;multihead -->
<g id="edge14" class="edge">
<title>convnext&#45;&gt;multihead</title>
<path fill="none" stroke="#56677a" stroke-width="1.6" d="M852.5,-177.3C866.77,-175.89 881.76,-174.41 896.36,-172.97"/>
<polygon fill="#56677a" stroke="#56677a" stroke-width="1.6" points="896.29,-175.79 903.98,-172.22 895.74,-170.22 896.29,-175.79"/>
</g>
<!-- multihead&#45;&gt;geometry -->
<g id="edge15" class="edge">
<title>multihead&#45;&gt;geometry</title>
<path fill="none" stroke="#56677a" stroke-width="1.6" d="M1070.37,-143.46C1113.38,-132.56 1166.53,-119.1 1211.75,-107.64"/>
<polygon fill="#56677a" stroke="#56677a" stroke-width="1.6" points="1212.15,-110.43 1219.22,-105.75 1210.77,-105 1212.15,-110.43"/>
<text xml:space="preserve" text-anchor="middle" x="1139.4" y="-137.99" font-family="Arial" font-size="10.00">candidate attributes</text>
</g>
<!-- multihead&#45;&gt;specs -->
<g id="edge16" class="edge">
<title>multihead&#45;&gt;specs</title>
<path fill="none" stroke="#56677a" stroke-width="1.6" d="M1070.37,-184.54C1118.92,-196.84 1180.41,-212.42 1228.81,-224.68"/>
<polygon fill="#56677a" stroke="#56677a" stroke-width="1.6" points="1227.83,-227.32 1236.27,-226.57 1229.2,-221.89 1227.83,-227.32"/>
<text xml:space="preserve" text-anchor="middle" x="1139.4" y="-214.26" font-family="Arial" font-size="10.00">family + polarity</text>
</g>
<!-- multihead&#45;&gt;render_match -->
<g id="edge20" class="edge">
<title>multihead&#45;&gt;render_match</title>
<path fill="none" stroke="#b98200" stroke-width="1.6" stroke-dasharray="5,2" d="M1070.37,-164C1109.17,-164 1156.23,-164 1198.27,-164"/>
<polygon fill="#b98200" stroke="#b98200" stroke-width="1.6" points="1198.13,-166.8 1206.13,-164 1198.13,-161.2 1198.13,-166.8"/>
<text xml:space="preserve" text-anchor="middle" x="1139.4" y="-166.5" font-family="Arial" font-size="10.00">top candidates</text>
</g>
<!-- geometry&#45;&gt;abstention -->
<g id="edge17" class="edge">
<title>geometry&#45;&gt;abstention</title>
<path fill="none" stroke="#56677a" stroke-width="1.6" d="M1398.41,-103.25C1463.9,-118.42 1553.97,-139.29 1624.3,-155.59"/>
<polygon fill="#56677a" stroke="#56677a" stroke-width="1.6" points="1623.3,-158.23 1631.73,-157.31 1624.57,-152.78 1623.3,-158.23"/>
</g>
<!-- specs&#45;&gt;abstention -->
<g id="edge18" class="edge">
<title>specs&#45;&gt;abstention</title>
<path fill="none" stroke="#56677a" stroke-width="1.6" d="M1381.35,-234.36C1442.26,-225.14 1531.91,-211.58 1605.58,-200.43"/>
<polygon fill="#56677a" stroke="#56677a" stroke-width="1.6" points="1605.97,-203.2 1613.47,-199.23 1605.14,-197.66 1605.97,-203.2"/>
</g>
<!-- render_match&#45;&gt;abstention -->
<g id="edge19" class="edge">
<title>render_match&#45;&gt;abstention</title>
<path fill="none" stroke="#b98200" stroke-width="1.6" stroke-dasharray="5,2" d="M1411.53,-168.04C1457.68,-169.89 1513.67,-172.15 1565.95,-174.25"/>
<polygon fill="#b98200" stroke="#b98200" stroke-width="1.6" points="1565.83,-177.04 1573.94,-174.57 1566.05,-171.45 1565.83,-177.04"/>
<text xml:space="preserve" text-anchor="middle" x="1484.05" y="-175" font-family="Arial" font-size="10.00">optional second pass</text>
</g>
<!-- abstention&#45;&gt;reports -->
<g id="edge21" class="edge">
<title>abstention&#45;&gt;reports</title>
<path fill="none" stroke="#56677a" stroke-width="1.6" d="M1901.77,-184.95C1933.54,-185.71 1965.4,-186.47 1992.8,-187.12"/>
<polygon fill="#56677a" stroke="#56677a" stroke-width="1.6" points="1992.59,-189.92 2000.65,-187.31 1992.72,-184.32 1992.59,-189.92"/>
<text xml:space="preserve" text-anchor="middle" x="1958.11" y="-189.14" font-family="Arial" font-size="10.00">evaluate</text>
</g>
<!-- reports&#45;&gt;server -->
<g id="edge22" class="edge">
<title>reports&#45;&gt;server</title>
<path fill="none" stroke="#56677a" stroke-width="1.6" d="M2142.15,-184.69C2178.81,-182.39 2224.18,-179.54 2262.62,-177.12"/>
<polygon fill="#56677a" stroke="#56677a" stroke-width="1.6" points="2262.52,-179.93 2270.33,-176.64 2262.17,-174.34 2262.52,-179.93"/>
<text xml:space="preserve" text-anchor="middle" x="2207.52" y="-185.52" font-family="Arial" font-size="10.00">best server model</text>
</g>
<!-- reports&#45;&gt;mobile -->
<g id="edge23" class="edge">
<title>reports&#45;&gt;mobile</title>
<path fill="none" stroke="#56677a" stroke-width="1.6" d="M2142.15,-205.23C2180.99,-214.42 2229.59,-225.91 2269.39,-235.32"/>
<polygon fill="#56677a" stroke="#56677a" stroke-width="1.6" points="2268.53,-237.99 2276.96,-237.11 2269.81,-232.54 2268.53,-237.99"/>
<text xml:space="preserve" text-anchor="middle" x="2207.52" y="-231.11" font-family="Arial" font-size="10.00">best edge model</text>
</g>
<!-- server&#45;&gt;final_json -->
<g id="edge24" class="edge">
<title>server&#45;&gt;final_json</title>
<path fill="none" stroke="#56677a" stroke-width="1.6" d="M2394.03,-192.02C2415.88,-201.16 2442.25,-212.19 2466.52,-222.34"/>
<polygon fill="#56677a" stroke="#56677a" stroke-width="1.6" points="2465.36,-224.89 2473.82,-225.4 2467.52,-219.73 2465.36,-224.89"/>
</g>
<!-- mobile&#45;&gt;final_json -->
<g id="edge25" class="edge">
<title>mobile&#45;&gt;final_json</title>
<path fill="none" stroke="#56677a" stroke-width="1.6" d="M2411.18,-253C2427.2,-253 2444.52,-253 2461.1,-253"/>
<polygon fill="#56677a" stroke="#56677a" stroke-width="1.6" points="2460.9,-255.8 2468.9,-253 2460.9,-250.2 2460.9,-255.8"/>
</g>
<!-- image -->
<g id="node1" class="node">
<title>image</title>
<defs>
<linearGradient id="node1_l_0" gradientUnits="userSpaceOnUse" x1="89.89" y1="-323.74" x2="89.89" y2="-366.26" >
<stop offset="0" style="stop-color:#efe6ff;stop-opacity:1.;"/>
<stop offset="1" style="stop-color:#fbf8ff;stop-opacity:1.;"/>
</linearGradient>
</defs>
<polygon fill="url(#node1_l_0)" stroke="#2f3b52" stroke-width="1.6" points="163.78,-362.26 160.78,-366.26 139.78,-366.26 136.78,-362.26 16,-362.26 16,-323.74 163.78,-323.74 163.78,-362.26"/>
<text xml:space="preserve" text-anchor="middle" x="89.89" y="-346.05" font-family="Arial" font-size="11.00">Camera Image</text>
<text xml:space="preserve" text-anchor="middle" x="89.89" y="-332.55" font-family="Arial" font-size="11.00">single frame or video frame</text>
</g>
<!-- hough -->
<g id="node2" class="node">
<title>hough</title>
<defs>
<linearGradient id="node2_l_1" gradientUnits="userSpaceOnUse" x1="371.92" y1="-335.74" x2="371.92" y2="-374.26" >
<stop offset="0" style="stop-color:#d9ecff;stop-opacity:1.;"/>
<stop offset="1" style="stop-color:#f7fbff;stop-opacity:1.;"/>
</linearGradient>
</defs>
<path fill="url(#node2_l_1)" stroke="#2f3b52" stroke-width="1.6" d="M433.06,-374.26C433.06,-374.26 310.78,-374.26 310.78,-374.26 304.78,-374.26 298.78,-368.26 298.78,-362.26 298.78,-362.26 298.78,-347.74 298.78,-347.74 298.78,-341.74 304.78,-335.74 310.78,-335.74 310.78,-335.74 433.06,-335.74 433.06,-335.74 439.06,-335.74 445.06,-341.74 445.06,-347.74 445.06,-347.74 445.06,-362.26 445.06,-362.26 445.06,-368.26 439.06,-374.26 433.06,-374.26"/>
<text xml:space="preserve" text-anchor="middle" x="371.92" y="-358.05" font-family="Arial" font-size="11.00">Hough Crop + rembg Gate</text>
<text xml:space="preserve" text-anchor="middle" x="371.92" y="-344.55" font-family="Arial" font-size="11.00">current detector substitute</text>
</g>
<!-- resnet -->
<g id="node3" class="node">
<title>resnet</title>
<defs>
<linearGradient id="node3_l_2" gradientUnits="userSpaceOnUse" x1="558.57" y1="-323.99" x2="558.57" y2="-376.01" >
<stop offset="0" style="stop-color:#d9ecff;stop-opacity:1.;"/>
<stop offset="1" style="stop-color:#f7fbff;stop-opacity:1.;"/>
</linearGradient>
</defs>
<path fill="url(#node3_l_2)" stroke="#2f3b52" stroke-width="1.6" d="M605.09,-376.01C605.09,-376.01 512.06,-376.01 512.06,-376.01 506.06,-376.01 500.06,-370.01 500.06,-364.01 500.06,-364.01 500.06,-335.99 500.06,-335.99 500.06,-329.99 506.06,-323.99 512.06,-323.99 512.06,-323.99 605.09,-323.99 605.09,-323.99 611.09,-323.99 617.09,-329.99 617.09,-335.99 617.09,-335.99 617.09,-364.01 617.09,-364.01 617.09,-370.01 611.09,-376.01 605.09,-376.01"/>
<text xml:space="preserve" text-anchor="middle" x="558.57" y="-359.8" font-family="Arial" font-size="11.00">ResNet&#45;18 Classifier</text>
<text xml:space="preserve" text-anchor="middle" x="558.57" y="-346.3" font-family="Arial" font-size="11.00">flat class label</text>
<text xml:space="preserve" text-anchor="middle" x="558.57" y="-332.8" font-family="Arial" font-size="11.00">baseline + fallback</text>
</g>
<!-- legacy_json -->
<g id="node4" class="node">
<title>legacy_json</title>
<defs>
<linearGradient id="node4_l_3" gradientUnits="userSpaceOnUse" x1="773.48" y1="-323.99" x2="773.48" y2="-376.01" >
<stop offset="0" style="stop-color:#d9ecff;stop-opacity:1.;"/>
<stop offset="1" style="stop-color:#f7fbff;stop-opacity:1.;"/>
</linearGradient>
</defs>
<polygon fill="url(#node4_l_3)" stroke="#2f3b52" stroke-width="1.6" points="838.74,-376.01 702.21,-376.01 702.21,-323.99 844.74,-323.99 844.74,-370.01 838.74,-376.01"/>
<polyline fill="none" stroke="#2f3b52" stroke-width="1.6" points="838.74,-376.01 838.74,-370.01"/>
<polyline fill="none" stroke="#2f3b52" stroke-width="1.6" points="844.74,-370.01 838.74,-370.01"/>
<text xml:space="preserve" text-anchor="middle" x="773.48" y="-359.8" font-family="Arial" font-size="11.00">Compatible /predict JSON</text>
<text xml:space="preserve" text-anchor="middle" x="773.48" y="-346.3" font-family="Arial" font-size="11.00">class_name, confidence,</text>
<text xml:space="preserve" text-anchor="middle" x="773.48" y="-332.8" font-family="Arial" font-size="11.00">probabilities, bbox</text>
</g>
<!-- yolo -->
<g id="node5" class="node">
<title>yolo</title>
<defs>
<linearGradient id="node5_l_4" gradientUnits="userSpaceOnUse" x1="371.92" y1="-132.99" x2="371.92" y2="-185.01" >
<stop offset="0" style="stop-color:#fff1cc;stop-opacity:1.;"/>
<stop offset="1" style="stop-color:#fffaf0;stop-opacity:1.;"/>
</linearGradient>
</defs>
<path fill="url(#node5_l_4)" stroke="#2f3b52" stroke-width="1.6" d="M431.93,-185.01C431.93,-185.01 311.9,-185.01 311.9,-185.01 305.9,-185.01 299.9,-179.01 299.9,-173.01 299.9,-173.01 299.9,-144.99 299.9,-144.99 299.9,-138.99 305.9,-132.99 311.9,-132.99 311.9,-132.99 431.93,-132.99 431.93,-132.99 437.93,-132.99 443.93,-138.99 443.93,-144.99 443.93,-144.99 443.93,-173.01 443.93,-173.01 443.93,-179.01 437.93,-185.01 431.93,-185.01"/>
<text xml:space="preserve" text-anchor="middle" x="371.92" y="-168.8" font-family="Arial" font-size="11.00">YOLO11n / YOLO11s</text>
<text xml:space="preserve" text-anchor="middle" x="371.92" y="-155.3" font-family="Arial" font-size="11.00">fast connector detector</text>
<text xml:space="preserve" text-anchor="middle" x="371.92" y="-141.8" font-family="Arial" font-size="11.00">multi&#45;connector separation</text>
</g>
<!-- rtdetr -->
<g id="node6" class="node">
<title>rtdetr</title>
<defs>
<linearGradient id="node6_l_5" gradientUnits="userSpaceOnUse" x1="371.92" y1="-220.99" x2="371.92" y2="-273.01" >
<stop offset="0" style="stop-color:#fff1cc;stop-opacity:1.;"/>
<stop offset="1" style="stop-color:#fffaf0;stop-opacity:1.;"/>
</linearGradient>
</defs>
<path fill="url(#node6_l_5)" stroke="#2f3b52" stroke-width="1.6" d="M429.31,-273.01C429.31,-273.01 314.53,-273.01 314.53,-273.01 308.53,-273.01 302.53,-267.01 302.53,-261.01 302.53,-261.01 302.53,-232.99 302.53,-232.99 302.53,-226.99 308.53,-220.99 314.53,-220.99 314.53,-220.99 429.31,-220.99 429.31,-220.99 435.31,-220.99 441.31,-226.99 441.31,-232.99 441.31,-232.99 441.31,-261.01 441.31,-261.01 441.31,-267.01 435.31,-273.01 429.31,-273.01"/>
<text xml:space="preserve" text-anchor="middle" x="371.92" y="-256.8" font-family="Arial" font-size="11.00">RT&#45;DETR Small</text>
<text xml:space="preserve" text-anchor="middle" x="371.92" y="-243.3" font-family="Arial" font-size="11.00">alternate detector</text>
<text xml:space="preserve" text-anchor="middle" x="371.92" y="-229.8" font-family="Arial" font-size="11.00">accuracy/latency bake&#45;off</text>
</g>
<!-- detector_metrics -->
<g id="node7" class="node">
<title>detector_metrics</title>
<defs>
<linearGradient id="node7_l_6" gradientUnits="userSpaceOnUse" x1="558.57" y1="-132.99" x2="558.57" y2="-185.01" >
<stop offset="0" style="stop-color:#fff1cc;stop-opacity:1.;"/>
<stop offset="1" style="stop-color:#fffaf0;stop-opacity:1.;"/>
</linearGradient>
</defs>
<polygon fill="url(#node7_l_6)" stroke="#2f3b52" stroke-width="1.6" points="610.34,-185.01 500.81,-185.01 500.81,-132.99 616.34,-132.99 616.34,-179.01 610.34,-185.01"/>
<polyline fill="none" stroke="#2f3b52" stroke-width="1.6" points="610.34,-185.01 610.34,-179.01"/>
<polyline fill="none" stroke="#2f3b52" stroke-width="1.6" points="616.34,-179.01 610.34,-179.01"/>
<text xml:space="preserve" text-anchor="middle" x="558.57" y="-168.8" font-family="Arial" font-size="11.00">Detector Metrics</text>
<text xml:space="preserve" text-anchor="middle" x="558.57" y="-155.3" font-family="Arial" font-size="11.00">mAP, false positives,</text>
<text xml:space="preserve" text-anchor="middle" x="558.57" y="-141.8" font-family="Arial" font-size="11.00">misses, latency</text>
</g>
<!-- efficientnet -->
<g id="node8" class="node">
<title>efficientnet</title>
<defs>
<linearGradient id="node8_l_7" gradientUnits="userSpaceOnUse" x1="773.48" y1="-90.74" x2="773.48" y2="-129.26" >
<stop offset="0" style="stop-color:#fff1cc;stop-opacity:1.;"/>
<stop offset="1" style="stop-color:#fffaf0;stop-opacity:1.;"/>
</linearGradient>
</defs>
<path fill="url(#node8_l_7)" stroke="#2f3b52" stroke-width="1.6" d="M837.62,-129.26C837.62,-129.26 709.34,-129.26 709.34,-129.26 703.34,-129.26 697.34,-123.26 697.34,-117.26 697.34,-117.26 697.34,-102.74 697.34,-102.74 697.34,-96.74 703.34,-90.74 709.34,-90.74 709.34,-90.74 837.62,-90.74 837.62,-90.74 843.62,-90.74 849.62,-96.74 849.62,-102.74 849.62,-102.74 849.62,-117.26 849.62,-117.26 849.62,-123.26 843.62,-129.26 837.62,-129.26"/>
<text xml:space="preserve" text-anchor="middle" x="773.48" y="-113.05" font-family="Arial" font-size="11.00">EfficientNetV2&#45;S</text>
<text xml:space="preserve" text-anchor="middle" x="773.48" y="-99.55" font-family="Arial" font-size="11.00">high&#45;accuracy crop classifier</text>
</g>
<!-- mobilenet -->
<g id="node9" class="node">
<title>mobilenet</title>
<defs>
<linearGradient id="node9_l_8" gradientUnits="userSpaceOnUse" x1="773.48" y1="-15.74" x2="773.48" y2="-54.26" >
<stop offset="0" style="stop-color:#fff1cc;stop-opacity:1.;"/>
<stop offset="1" style="stop-color:#fffaf0;stop-opacity:1.;"/>
</linearGradient>
</defs>
<path fill="url(#node9_l_8)" stroke="#2f3b52" stroke-width="1.6" d="M829.74,-54.26C829.74,-54.26 717.21,-54.26 717.21,-54.26 711.21,-54.26 705.21,-48.26 705.21,-42.26 705.21,-42.26 705.21,-27.74 705.21,-27.74 705.21,-21.74 711.21,-15.74 717.21,-15.74 717.21,-15.74 829.74,-15.74 829.74,-15.74 835.74,-15.74 841.74,-21.74 841.74,-27.74 841.74,-27.74 841.74,-42.26 841.74,-42.26 841.74,-48.26 835.74,-54.26 829.74,-54.26"/>
<text xml:space="preserve" text-anchor="middle" x="773.48" y="-38.05" font-family="Arial" font-size="11.00">MobileNetV3 / MobileViT</text>
<text xml:space="preserve" text-anchor="middle" x="773.48" y="-24.55" font-family="Arial" font-size="11.00">mobile&#45;first classifier</text>
</g>
<!-- convnext -->
<g id="node10" class="node">
<title>convnext</title>
<defs>
<linearGradient id="node10_l_9" gradientUnits="userSpaceOnUse" x1="773.48" y1="-165.74" x2="773.48" y2="-204.26" >
<stop offset="0" style="stop-color:#fff1cc;stop-opacity:1.;"/>
<stop offset="1" style="stop-color:#fffaf0;stop-opacity:1.;"/>
</linearGradient>
</defs>
<path fill="url(#node10_l_9)" stroke="#2f3b52" stroke-width="1.6" d="M839.87,-204.26C839.87,-204.26 707.09,-204.26 707.09,-204.26 701.09,-204.26 695.09,-198.26 695.09,-192.26 695.09,-192.26 695.09,-177.74 695.09,-177.74 695.09,-171.74 701.09,-165.74 707.09,-165.74 707.09,-165.74 839.87,-165.74 839.87,-165.74 845.87,-165.74 851.87,-171.74 851.87,-177.74 851.87,-177.74 851.87,-192.26 851.87,-192.26 851.87,-198.26 845.87,-204.26 839.87,-204.26"/>
<text xml:space="preserve" text-anchor="middle" x="773.48" y="-188.05" font-family="Arial" font-size="11.00">ConvNeXt&#45;Tiny</text>
<text xml:space="preserve" text-anchor="middle" x="773.48" y="-174.55" font-family="Arial" font-size="11.00">strong fine&#45;grained candidate</text>
</g>
<!-- multihead -->
<g id="node11" class="node">
<title>multihead</title>
<defs>
<linearGradient id="node11_l_10" gradientUnits="userSpaceOnUse" x1="988.26" y1="-137.99" x2="988.26" y2="-190.01" >
<stop offset="0" style="stop-color:#fff1cc;stop-opacity:1.;"/>
<stop offset="1" style="stop-color:#fffaf0;stop-opacity:1.;"/>
</linearGradient>
</defs>
<path fill="url(#node11_l_10)" stroke="#2f3b52" stroke-width="1.6" d="M1057.65,-190.01C1057.65,-190.01 918.87,-190.01 918.87,-190.01 912.87,-190.01 906.87,-184.01 906.87,-178.01 906.87,-178.01 906.87,-149.99 906.87,-149.99 906.87,-143.99 912.87,-137.99 918.87,-137.99 918.87,-137.99 1057.65,-137.99 1057.65,-137.99 1063.65,-137.99 1069.65,-143.99 1069.65,-149.99 1069.65,-149.99 1069.65,-178.01 1069.65,-178.01 1069.65,-184.01 1063.65,-190.01 1057.65,-190.01"/>
<text xml:space="preserve" text-anchor="middle" x="988.26" y="-173.8" font-family="Arial" font-size="11.00">Multi&#45;Head Attribute Output</text>
<text xml:space="preserve" text-anchor="middle" x="988.26" y="-160.3" font-family="Arial" font-size="11.00">family, polarity, gender,</text>
<text xml:space="preserve" text-anchor="middle" x="988.26" y="-146.8" font-family="Arial" font-size="11.00">mount, orientation, termination</text>
</g>
<!-- geometry -->
<g id="node12" class="node">
<title>geometry</title>
<defs>
<linearGradient id="node12_l_11" gradientUnits="userSpaceOnUse" x1="1310.04" y1="-56.99" x2="1310.04" y2="-109.01" >
<stop offset="0" style="stop-color:#e5f7e7;stop-opacity:1.;"/>
<stop offset="1" style="stop-color:#f8fff8;stop-opacity:1.;"/>
</linearGradient>
</defs>
<path fill="url(#node12_l_11)" stroke="#2f3b52" stroke-width="1.6" d="M1385.8,-109.01C1385.8,-109.01 1234.27,-109.01 1234.27,-109.01 1228.27,-109.01 1222.27,-103.01 1222.27,-97.01 1222.27,-97.01 1222.27,-68.99 1222.27,-68.99 1222.27,-62.99 1228.27,-56.99 1234.27,-56.99 1234.27,-56.99 1385.8,-56.99 1385.8,-56.99 1391.8,-56.99 1397.8,-62.99 1397.8,-68.99 1397.8,-68.99 1397.8,-97.01 1397.8,-97.01 1397.8,-103.01 1391.8,-109.01 1385.8,-109.01"/>
<text xml:space="preserve" text-anchor="middle" x="1310.04" y="-92.8" font-family="Arial" font-size="11.00">Geometry / Measurement</text>
<text xml:space="preserve" text-anchor="middle" x="1310.04" y="-79.3" font-family="Arial" font-size="11.00">thread cues, aperture,</text>
<text xml:space="preserve" text-anchor="middle" x="1310.04" y="-65.8" font-family="Arial" font-size="11.00">hex, body length, scale reference</text>
</g>
<!-- specs -->
<g id="node13" class="node">
<title>specs</title>
<defs>
<linearGradient id="node13_l_12" gradientUnits="userSpaceOnUse" x1="1310.04" y1="-218.99" x2="1310.04" y2="-275.01" >
<stop offset="0" style="stop-color:#e5f7e7;stop-opacity:1.;"/>
<stop offset="1" style="stop-color:#f8fff8;stop-opacity:1.;"/>
</linearGradient>
</defs>
<polygon fill="url(#node13_l_12)" stroke="#2f3b52" stroke-width="1.6" points="1380.93,-271.01 1377.93,-275.01 1356.93,-275.01 1353.93,-271.01 1239.15,-271.01 1239.15,-218.99 1380.93,-218.99 1380.93,-271.01"/>
<text xml:space="preserve" text-anchor="middle" x="1310.04" y="-254.8" font-family="Arial" font-size="11.00">Taxonomy + Spec Lookup</text>
<text xml:space="preserve" text-anchor="middle" x="1310.04" y="-241.3" font-family="Arial" font-size="11.00">connectors.yaml</text>
<text xml:space="preserve" text-anchor="middle" x="1310.04" y="-227.8" font-family="Arial" font-size="11.00">compatibility constraints</text>
</g>
<!-- render_match -->
<g id="node14" class="node">
<title>render_match</title>
<defs>
<linearGradient id="node14_l_13" gradientUnits="userSpaceOnUse" x1="1310.04" y1="-144.74" x2="1310.04" y2="-183.26" >
<stop offset="0" style="stop-color:#fff1cc;stop-opacity:1.;"/>
<stop offset="1" style="stop-color:#fffaf0;stop-opacity:1.;"/>
</linearGradient>
</defs>
<path fill="url(#node14_l_13)" stroke="#2f3b52" stroke-width="1.6" d="M1398.93,-183.26C1398.93,-183.26 1221.15,-183.26 1221.15,-183.26 1215.15,-183.26 1209.15,-177.26 1209.15,-171.26 1209.15,-171.26 1209.15,-156.74 1209.15,-156.74 1209.15,-150.74 1215.15,-144.74 1221.15,-144.74 1221.15,-144.74 1398.93,-144.74 1398.93,-144.74 1404.93,-144.74 1410.93,-150.74 1410.93,-156.74 1410.93,-156.74 1410.93,-171.26 1410.93,-171.26 1410.93,-177.26 1404.93,-183.26 1398.93,-183.26"/>
<text xml:space="preserve" text-anchor="middle" x="1310.04" y="-167.05" font-family="Arial" font-size="11.00">Optional 3D Render Verification</text>
<text xml:space="preserve" text-anchor="middle" x="1310.04" y="-153.55" font-family="Arial" font-size="11.00">candidate model pose/silhouette check</text>
</g>
<!-- abstention -->
<g id="node15" class="node">
<title>abstention</title>
<defs>
<linearGradient id="node15_l_14" gradientUnits="userSpaceOnUse" x1="1734.96" y1="-130.66" x2="1734.96" y2="-231.34" >
<stop offset="0" style="stop-color:#fce3e3;stop-opacity:1.;"/>
<stop offset="1" style="stop-color:#fff7f7;stop-opacity:1.;"/>
</linearGradient>
</defs>
<path fill="url(#node15_l_14)" stroke="#2f3b52" stroke-width="1.6" d="M1723.44,-229.65C1723.44,-229.65 1568.7,-184.37 1568.7,-184.37 1562.94,-182.68 1562.94,-179.32 1568.7,-177.63 1568.7,-177.63 1723.44,-132.35 1723.44,-132.35 1729.2,-130.66 1740.72,-130.66 1746.48,-132.35 1746.48,-132.35 1901.22,-177.63 1901.22,-177.63 1906.98,-179.32 1906.98,-182.68 1901.22,-184.37 1901.22,-184.37 1746.48,-229.65 1746.48,-229.65 1740.72,-231.34 1729.2,-231.34 1723.44,-229.65"/>
<text xml:space="preserve" text-anchor="middle" x="1734.96" y="-190.8" font-family="Arial" font-size="11.00">Confidence / Abstention Gate</text>
<text xml:space="preserve" text-anchor="middle" x="1734.96" y="-177.3" font-family="Arial" font-size="11.00">high confidence, ambiguous,</text>
<text xml:space="preserve" text-anchor="middle" x="1734.96" y="-163.8" font-family="Arial" font-size="11.00">need angle, need scale, unknown</text>
</g>
<!-- reports -->
<g id="node16" class="node">
<title>reports</title>
<defs>
<linearGradient id="node16_l_15" gradientUnits="userSpaceOnUse" x1="2072.51" y1="-156.24" x2="2072.51" y2="-225.76" >
<stop offset="0" style="stop-color:#fff1cc;stop-opacity:1.;"/>
<stop offset="1" style="stop-color:#fffaf0;stop-opacity:1.;"/>
</linearGradient>
</defs>
<polygon fill="url(#node16_l_15)" stroke="#2f3b52" stroke-width="1.6" points="2141.52,-221.76 2138.52,-225.76 2117.52,-225.76 2114.52,-221.76 2003.49,-221.76 2003.49,-156.24 2141.52,-156.24 2141.52,-221.76"/>
<text xml:space="preserve" text-anchor="middle" x="2072.51" y="-205.55" font-family="Arial" font-size="11.00">Bake&#45;Off Reports</text>
<text xml:space="preserve" text-anchor="middle" x="2072.51" y="-192.05" font-family="Arial" font-size="11.00">confusion matrices,</text>
<text xml:space="preserve" text-anchor="middle" x="2072.51" y="-178.55" font-family="Arial" font-size="11.00">failure gallery, calibration,</text>
<text xml:space="preserve" text-anchor="middle" x="2072.51" y="-165.05" font-family="Arial" font-size="11.00">latency, model card</text>
</g>
<!-- server -->
<g id="node17" class="node">
<title>server</title>
<defs>
<linearGradient id="node17_l_16" gradientUnits="userSpaceOnUse" x1="2343.16" y1="-152.74" x2="2343.16" y2="-191.26" >
<stop offset="0" style="stop-color:#efe6ff;stop-opacity:1.;"/>
<stop offset="1" style="stop-color:#fbf8ff;stop-opacity:1.;"/>
</linearGradient>
</defs>
<polygon fill="url(#node17_l_16)" stroke="#2f3b52" stroke-width="1.6" points="2416.8,-191.26 2273.52,-191.26 2273.52,-187.26 2269.52,-187.26 2269.52,-183.26 2273.52,-183.26 2273.52,-160.74 2269.52,-160.74 2269.52,-156.74 2273.52,-156.74 2273.52,-152.74 2416.8,-152.74 2416.8,-191.26"/>
<polyline fill="none" stroke="#2f3b52" stroke-width="1.6" points="2273.52,-187.26 2277.52,-187.26 2277.52,-183.26 2273.52,-183.26"/>
<polyline fill="none" stroke="#2f3b52" stroke-width="1.6" points="2273.52,-160.74 2277.52,-160.74 2277.52,-156.74 2273.52,-156.74"/>
<text xml:space="preserve" text-anchor="middle" x="2345.16" y="-175.05" font-family="Arial" font-size="11.00">Server Fallback</text>
<text xml:space="preserve" text-anchor="middle" x="2345.16" y="-161.55" font-family="Arial" font-size="11.00">FastAPI + PyTorch/ONNX</text>
</g>
<!-- mobile -->
<g id="node18" class="node">
<title>mobile</title>
<defs>
<linearGradient id="node18_l_17" gradientUnits="userSpaceOnUse" x1="2343.16" y1="-226.99" x2="2343.16" y2="-279.01" >
<stop offset="0" style="stop-color:#efe6ff;stop-opacity:1.;"/>
<stop offset="1" style="stop-color:#fbf8ff;stop-opacity:1.;"/>
</linearGradient>
</defs>
<polygon fill="url(#node18_l_17)" stroke="#2f3b52" stroke-width="1.6" points="2410.42,-279.01 2279.89,-279.01 2279.89,-275.01 2275.89,-275.01 2275.89,-271.01 2279.89,-271.01 2279.89,-234.99 2275.89,-234.99 2275.89,-230.99 2279.89,-230.99 2279.89,-226.99 2410.42,-226.99 2410.42,-279.01"/>
<polyline fill="none" stroke="#2f3b52" stroke-width="1.6" points="2279.89,-275.01 2283.89,-275.01 2283.89,-271.01 2279.89,-271.01"/>
<polyline fill="none" stroke="#2f3b52" stroke-width="1.6" points="2279.89,-234.99 2283.89,-234.99 2283.89,-230.99 2279.89,-230.99"/>
<text xml:space="preserve" text-anchor="middle" x="2345.16" y="-262.8" font-family="Arial" font-size="11.00">Mobile Exports</text>
<text xml:space="preserve" text-anchor="middle" x="2345.16" y="-249.3" font-family="Arial" font-size="11.00">ONNX Runtime Mobile,</text>
<text xml:space="preserve" text-anchor="middle" x="2345.16" y="-235.8" font-family="Arial" font-size="11.00">TFLite/LiteRT, Core ML</text>
</g>
<!-- final_json -->
<g id="node19" class="node">
<title>final_json</title>
<defs>
<linearGradient id="node19_l_18" gradientUnits="userSpaceOnUse" x1="2540.82" y1="-226.99" x2="2540.82" y2="-279.01" >
<stop offset="0" style="stop-color:#fff1cc;stop-opacity:1.;"/>
<stop offset="1" style="stop-color:#fffaf0;stop-opacity:1.;"/>
</linearGradient>
</defs>
<polygon fill="url(#node19_l_18)" stroke="#2f3b52" stroke-width="1.6" points="2603.83,-279.01 2471.8,-279.01 2471.8,-226.99 2609.83,-226.99 2609.83,-273.01 2603.83,-279.01"/>
<polyline fill="none" stroke="#2f3b52" stroke-width="1.6" points="2603.83,-279.01 2603.83,-273.01"/>
<polyline fill="none" stroke="#2f3b52" stroke-width="1.6" points="2609.83,-273.01 2603.83,-273.01"/>
<text xml:space="preserve" text-anchor="middle" x="2540.82" y="-262.8" font-family="Arial" font-size="11.00">Structured Prediction</text>
<text xml:space="preserve" text-anchor="middle" x="2540.82" y="-249.3" font-family="Arial" font-size="11.00">old fields preserved +</text>
<text xml:space="preserve" text-anchor="middle" x="2540.82" y="-235.8" font-family="Arial" font-size="11.00">rich detections and specs</text>
</g>
</g>
</svg>
