<?xml version="1.0" encoding="UTF-8" standalone="no"?>
<!DOCTYPE svg PUBLIC "-//W3C//DTD SVG 1.1//EN"
 "http://www.w3.org/Graphics/SVG/1.1/DTD/svg11.dtd">
<!-- Generated by graphviz version 14.1.1 (20251213.1925)
 -->
<!-- Title: ReadmeTechnicalOverview Pages: 1 -->
<svg width="2181pt" height="2747pt"
 viewBox="0.00 0.00 2181.00 2747.00" xmlns="http://www.w3.org/2000/svg" xmlns:xlink="http://www.w3.org/1999/xlink">
<g id="graph0" class="graph" transform="scale(3.05556 3.05556) rotate(0) translate(25.2 873.91)">
<title>ReadmeTechnicalOverview</title>
<polygon fill="#111827" stroke="none" points="-25.2,25.2 -25.2,-873.91 688.45,-873.91 688.45,25.2 -25.2,25.2"/>
<text xml:space="preserve" text-anchor="middle" x="331.62" y="-818.11" font-family="Arial Bold" font-size="28.00">Connector ID &#45; Camera to Connector Intelligence</text>
<!-- capture&#45;&gt;detect -->
<g id="edge1" class="edge">
<title>capture&#45;&gt;detect</title>
<path fill="none" stroke="#93c5fd" stroke-width="2" d="M226.81,-743.84C226.81,-726.27 226.81,-704.25 226.81,-685.18"/>
<polygon fill="#93c5fd" stroke="#93c5fd" stroke-width="2" points="229.79,-685.28 226.81,-676.78 223.84,-685.28 229.79,-685.28"/>
<text xml:space="preserve" text-anchor="middle" x="240.69" y="-705.23" font-family="Arial" font-size="11.00" fill="#dbeafe">frame</text>
</g>
<!-- detect&#45;&gt;classify -->
<g id="edge2" class="edge">
<title>detect&#45;&gt;classify</title>
<path fill="none" stroke="#93c5fd" stroke-width="2" d="M191.12,-607.81C170.37,-589.15 144.05,-565.47 122,-545.63"/>
<polygon fill="#93c5fd" stroke="#93c5fd" stroke-width="2" points="124.03,-543.46 115.72,-539.98 120.05,-547.88 124.03,-543.46"/>
<text xml:space="preserve" text-anchor="middle" x="167.28" y="-569.2" font-family="Arial" font-size="11.00" fill="#dbeafe">crop</text>
</g>
<!-- classify&#45;&gt;verify -->
<g id="edge3" class="edge">
<title>classify&#45;&gt;verify</title>
<path fill="none" stroke="#93c5fd" stroke-width="2" d="M91.7,-471.78C99.45,-453.88 109.2,-431.36 117.55,-412.05"/>
<polygon fill="#93c5fd" stroke="#93c5fd" stroke-width="2" points="120.19,-413.46 120.83,-404.47 114.73,-411.09 120.19,-413.46"/>
<text xml:space="preserve" text-anchor="middle" x="130.68" y="-433.17" font-family="Arial" font-size="11.00" fill="#dbeafe">attributes</text>
</g>
<!-- verify&#45;&gt;decide -->
<g id="edge4" class="edge">
<title>verify&#45;&gt;decide</title>
<path fill="none" stroke="#93c5fd" stroke-width="2" d="M158.37,-335.79C173.93,-313.68 195.01,-283.71 213.32,-257.69"/>
<polygon fill="#93c5fd" stroke="#93c5fd" stroke-width="2" points="215.72,-259.45 218.18,-250.79 210.85,-256.03 215.72,-259.45"/>
<text xml:space="preserve" text-anchor="middle" x="208.68" y="-297.14" font-family="Arial" font-size="11.00" fill="#dbeafe">evidence</text>
</g>
<!-- decide&#45;&gt;result -->
<g id="edge5" class="edge">
<title>decide&#45;&gt;result</title>
<path fill="none" stroke="#93c5fd" stroke-width="2" d="M287.79,-154.12C306.95,-129.22 330.53,-98.6 349.14,-74.41"/>
<polygon fill="#93c5fd" stroke="#93c5fd" stroke-width="2" points="351.35,-76.43 354.17,-67.87 346.63,-72.8 351.35,-76.43"/>
<text xml:space="preserve" text-anchor="middle" x="349.67" y="-96.58" font-family="Arial" font-size="11.00" fill="#dbeafe">answer</text>
</g>
<!-- result&#45;&gt;feedback -->
<g id="edge6" class="edge">
<title>result&#45;&gt;feedback</title>
<path fill="none" stroke="#86efac" stroke-width="2" stroke-dasharray="5,2" d="M394.97,-65.29C431.49,-147.92 528.92,-368.38 570.06,-461.47"/>
<polygon fill="#86efac" stroke="#86efac" stroke-width="2" points="567.3,-462.57 573.46,-469.14 572.74,-460.16 567.3,-462.57"/>
<text xml:space="preserve" text-anchor="middle" x="527.8" y="-297.14" font-family="Arial" font-size="11.00" fill="#dbeafe">corrections</text>
</g>
<!-- feedback&#45;&gt;training_data -->
<g id="edge7" class="edge">
<title>feedback&#45;&gt;training_data</title>
<path fill="none" stroke="#86efac" stroke-width="2" stroke-dasharray="5,2" d="M550.05,-537.96C527.29,-556.78 498.37,-580.71 474.26,-600.66"/>
<polygon fill="#86efac" stroke="#86efac" stroke-width="2" points="472.6,-598.17 467.95,-605.88 476.39,-602.76 472.6,-598.17"/>
<text xml:space="preserve" text-anchor="middle" x="541.92" y="-569.2" font-family="Arial" font-size="11.00" fill="#dbeafe">label + audit</text>
</g>
<!-- training_data&#45;&gt;export -->
<g id="edge8" class="edge">
<title>training_data&#45;&gt;export</title>
<path fill="none" stroke="#86efac" stroke-width="2" stroke-dasharray="5,2" d="M418.27,-607.88C405.33,-559.35 380.75,-467.14 366.27,-412.84"/>
<polygon fill="#86efac" stroke="#86efac" stroke-width="2" points="369.19,-412.22 364.12,-404.78 363.44,-413.76 369.19,-412.22"/>
<text xml:space="preserve" text-anchor="middle" x="432.89" y="-501.19" font-family="Arial" font-size="11.00" fill="#dbeafe">cloud bake&#45;off</text>
</g>
<!-- export&#45;&gt;detect -->
<g id="edge9" class="edge">
<title>export&#45;&gt;detect</title>
<path fill="none" stroke="#86efac" stroke-width="2" stroke-dasharray="5,2" d="M339.03,-401.72C329.05,-421.97 315.93,-448.78 304.56,-472.62 284.41,-514.88 261.92,-563.43 246.34,-597.3"/>
<polygon fill="#86efac" stroke="#86efac" stroke-width="2" points="243.64,-596.04 242.79,-605 249.05,-598.52 243.64,-596.04"/>
<text xml:space="preserve" text-anchor="middle" x="337.19" y="-501.19" font-family="Arial" font-size="11.00" fill="#dbeafe">better models</text>
</g>
<!-- capture -->
<g id="node1" class="node">
<title>capture</title>
<defs>
<linearGradient id="node1_l_0" gradientUnits="userSpaceOnUse" x1="224.81" y1="-744.68" x2="224.81" y2="-809.21" >
<stop offset="0" style="stop-color:#2563eb;stop-opacity:1.;"/>
<stop offset="1" style="stop-color:#1e40af;stop-opacity:1.;"/>
</linearGradient>
</defs>
<polygon fill="url(#node1_l_0)" stroke="#dbeafe" stroke-width="2" points="284.77,-809.21 168.85,-809.21 168.85,-805.21 164.85,-805.21 164.85,-801.21 168.85,-801.21 168.85,-752.68 164.85,-752.68 164.85,-748.68 168.85,-748.68 168.85,-744.68 284.77,-744.68 284.77,-809.21"/>
<polyline fill="none" stroke="#dbeafe" stroke-width="2" points="168.85,-805.21 172.85,-805.21 172.85,-801.21 168.85,-801.21"/>
<polyline fill="none" stroke="#dbeafe" stroke-width="2" points="168.85,-752.68 172.85,-752.68 172.85,-748.68 168.85,-748.68"/>
<text xml:space="preserve" text-anchor="middle" x="226.81" y="-787.27" font-family="Arial" font-size="14.00" fill="#f8fafc">Capture</text>
<text xml:space="preserve" text-anchor="middle" x="226.81" y="-771.52" font-family="Arial" font-size="14.00" fill="#f8fafc">mobile camera</text>
<text xml:space="preserve" text-anchor="middle" x="226.81" y="-755.77" font-family="Arial" font-size="14.00" fill="#f8fafc">video / photo</text>
</g>
<!-- detect -->
<g id="node2" class="node">
<title>detect</title>
<defs>
<linearGradient id="node2_l_1" gradientUnits="userSpaceOnUse" x1="226.81" y1="-608.65" x2="226.81" y2="-673.18" >
<stop offset="0" style="stop-color:#0f766e;stop-opacity:1.;"/>
<stop offset="1" style="stop-color:#115e59;stop-opacity:1.;"/>
</linearGradient>
</defs>
<path fill="url(#node2_l_1)" stroke="#dbeafe" stroke-width="2" d="M277.27,-673.18C277.27,-673.18 176.35,-673.18 176.35,-673.18 170.35,-673.18 164.35,-667.18 164.35,-661.18 164.35,-661.18 164.35,-620.65 164.35,-620.65 164.35,-614.65 170.35,-608.65 176.35,-608.65 176.35,-608.65 277.27,-608.65 277.27,-608.65 283.27,-608.65 289.27,-614.65 289.27,-620.65 289.27,-620.65 289.27,-661.18 289.27,-661.18 289.27,-667.18 283.27,-673.18 277.27,-673.18"/>
<text xml:space="preserve" text-anchor="middle" x="226.81" y="-651.24" font-family="Arial" font-size="14.00" fill="#f8fafc">Detect</text>
<text xml:space="preserve" text-anchor="middle" x="226.81" y="-635.49" font-family="Arial" font-size="14.00" fill="#f8fafc">connector boxes</text>
<text xml:space="preserve" text-anchor="middle" x="226.81" y="-619.74" font-family="Arial" font-size="14.00" fill="#f8fafc">multi&#45;instance</text>
</g>
<!-- classify -->
<g id="node3" class="node">
<title>classify</title>
<defs>
<linearGradient id="node3_l_2" gradientUnits="userSpaceOnUse" x1="77.81" y1="-472.62" x2="77.81" y2="-537.15" >
<stop offset="0" style="stop-color:#7c3aed;stop-opacity:1.;"/>
<stop offset="1" style="stop-color:#5b21b6;stop-opacity:1.;"/>
</linearGradient>
</defs>
<path fill="url(#node3_l_2)" stroke="#dbeafe" stroke-width="2" d="M126.4,-537.15C126.4,-537.15 29.23,-537.15 29.23,-537.15 23.23,-537.15 17.23,-531.15 17.23,-525.15 17.23,-525.15 17.23,-484.62 17.23,-484.62 17.23,-478.62 23.23,-472.62 29.23,-472.62 29.23,-472.62 126.4,-472.62 126.4,-472.62 132.4,-472.62 138.4,-478.62 138.4,-484.62 138.4,-484.62 138.4,-525.15 138.4,-525.15 138.4,-531.15 132.4,-537.15 126.4,-537.15"/>
<text xml:space="preserve" text-anchor="middle" x="77.81" y="-515.21" font-family="Arial" font-size="14.00" fill="#f8fafc">Classify</text>
<text xml:space="preserve" text-anchor="middle" x="77.81" y="-499.46" font-family="Arial" font-size="14.00" fill="#f8fafc">family + polarity</text>
<text xml:space="preserve" text-anchor="middle" x="77.81" y="-483.71" font-family="Arial" font-size="14.00" fill="#f8fafc">gender + shape</text>
</g>
<!-- verify -->
<g id="node4" class="node">
<title>verify</title>
<defs>
<linearGradient id="node4_l_3" gradientUnits="userSpaceOnUse" x1="135.81" y1="-336.59" x2="135.81" y2="-401.12" >
<stop offset="0" style="stop-color:#b45309;stop-opacity:1.;"/>
<stop offset="1" style="stop-color:#92400e;stop-opacity:1.;"/>
</linearGradient>
</defs>
<path fill="url(#node4_l_3)" stroke="#dbeafe" stroke-width="2" d="M196.02,-401.12C196.02,-401.12 75.6,-401.12 75.6,-401.12 69.6,-401.12 63.6,-395.12 63.6,-389.12 63.6,-389.12 63.6,-348.59 63.6,-348.59 63.6,-342.59 69.6,-336.59 75.6,-336.59 75.6,-336.59 196.02,-336.59 196.02,-336.59 202.02,-336.59 208.02,-342.59 208.02,-348.59 208.02,-348.59 208.02,-389.12 208.02,-389.12 208.02,-395.12 202.02,-401.12 196.02,-401.12"/>
<text xml:space="preserve" text-anchor="middle" x="135.81" y="-379.18" font-family="Arial" font-size="14.00" fill="#f8fafc">Verify</text>
<text xml:space="preserve" text-anchor="middle" x="135.81" y="-363.43" font-family="Arial" font-size="14.00" fill="#f8fafc">geometry + specs</text>
<text xml:space="preserve" text-anchor="middle" x="135.81" y="-347.68" font-family="Arial" font-size="14.00" fill="#f8fafc">3D candidate check</text>
</g>
<!-- decide -->
<g id="node5" class="node">
<title>decide</title>
<defs>
<linearGradient id="node5_l_4" gradientUnits="userSpaceOnUse" x1="252.81" y1="-138.89" x2="252.81" y2="-262.23" >
<stop offset="0" style="stop-color:#dc2626;stop-opacity:1.;"/>
<stop offset="1" style="stop-color:#991b1b;stop-opacity:1.;"/>
</linearGradient>
</defs>
<path fill="url(#node5_l_4)" stroke="#dbeafe" stroke-width="2" d="M242.27,-259.37C242.27,-259.37 144.44,-206.28 144.44,-206.28 139.17,-203.42 139.17,-197.7 144.44,-194.84 144.44,-194.84 242.27,-141.75 242.27,-141.75 247.54,-138.89 258.09,-138.89 263.36,-141.75 263.36,-141.75 361.19,-194.84 361.19,-194.84 366.46,-197.7 366.46,-203.42 361.19,-206.28 361.19,-206.28 263.36,-259.37 263.36,-259.37 258.09,-262.23 247.54,-262.23 242.27,-259.37"/>
<text xml:space="preserve" text-anchor="middle" x="252.81" y="-210.88" font-family="Arial" font-size="14.00" fill="#f8fafc">Decide</text>
<text xml:space="preserve" text-anchor="middle" x="252.81" y="-195.13" font-family="Arial" font-size="14.00" fill="#f8fafc">confident result</text>
<text xml:space="preserve" text-anchor="middle" x="252.81" y="-179.38" font-family="Arial" font-size="14.00" fill="#f8fafc">or ask for angle</text>
</g>
<!-- result -->
<g id="node6" class="node">
<title>result</title>
<defs>
<linearGradient id="node6_l_5" gradientUnits="userSpaceOnUse" x1="380.81" y1="0" x2="380.81" y2="-64.53" >
<stop offset="0" style="stop-color:#16a34a;stop-opacity:1.;"/>
<stop offset="1" style="stop-color:#166534;stop-opacity:1.;"/>
</linearGradient>
</defs>
<polygon fill="url(#node6_l_5)" stroke="#dbeafe" stroke-width="2" points="445.9,-64.53 309.73,-64.53 309.73,0 451.9,0 451.9,-58.53 445.9,-64.53"/>
<polyline fill="none" stroke="#dbeafe" stroke-width="2" points="445.9,-64.53 445.9,-58.53"/>
<polyline fill="none" stroke="#dbeafe" stroke-width="2" points="451.9,-58.53 445.9,-58.53"/>
<text xml:space="preserve" text-anchor="middle" x="380.81" y="-42.59" font-family="Arial" font-size="14.00" fill="#f8fafc">Output</text>
<text xml:space="preserve" text-anchor="middle" x="380.81" y="-26.84" font-family="Arial" font-size="14.00" fill="#f8fafc">connector ID</text>
<text xml:space="preserve" text-anchor="middle" x="380.81" y="-11.09" font-family="Arial" font-size="14.00" fill="#f8fafc">confidence + specs</text>
</g>
<!-- feedback -->
<g id="node7" class="node">
<title>feedback</title>
<defs>
<linearGradient id="node7_l_6" gradientUnits="userSpaceOnUse" x1="588.81" y1="-472.62" x2="588.81" y2="-541.15" >
<stop offset="0" style="stop-color:#475569;stop-opacity:1.;"/>
<stop offset="1" style="stop-color:#334155;stop-opacity:1.;"/>
</linearGradient>
</defs>
<polygon fill="url(#node7_l_6)" stroke="#dbeafe" stroke-width="2" points="646.02,-537.15 643.02,-541.15 622.02,-541.15 619.02,-537.15 531.6,-537.15 531.6,-472.62 646.02,-472.62 646.02,-537.15"/>
<text xml:space="preserve" text-anchor="middle" x="588.81" y="-515.21" font-family="Arial" font-size="14.00" fill="#f8fafc">Improve</text>
<text xml:space="preserve" text-anchor="middle" x="588.81" y="-499.46" font-family="Arial" font-size="14.00" fill="#f8fafc">cloud training</text>
<text xml:space="preserve" text-anchor="middle" x="588.81" y="-483.71" font-family="Arial" font-size="14.00" fill="#f8fafc">Kaggle / Colab</text>
</g>
<!-- training_data -->
<g id="node8" class="node">
<title>training_data</title>
<defs>
<linearGradient id="node8_l_7" gradientUnits="userSpaceOnUse" x1="426.81" y1="-608.65" x2="426.81" y2="-677.18" >
<stop offset="0" style="stop-color:#475569;stop-opacity:1.;"/>
<stop offset="1" style="stop-color:#334155;stop-opacity:1.;"/>
</linearGradient>
</defs>
<polygon fill="url(#node8_l_7)" stroke="#dbeafe" stroke-width="2" points="491.15,-673.18 488.15,-677.18 467.15,-677.18 464.15,-673.18 362.48,-673.18 362.48,-608.65 491.15,-608.65 491.15,-673.18"/>
<text xml:space="preserve" text-anchor="middle" x="426.81" y="-651.24" font-family="Arial" font-size="14.00" fill="#f8fafc">Learn</text>
<text xml:space="preserve" text-anchor="middle" x="426.81" y="-635.49" font-family="Arial" font-size="14.00" fill="#f8fafc">verified crops</text>
<text xml:space="preserve" text-anchor="middle" x="426.81" y="-619.74" font-family="Arial" font-size="14.00" fill="#f8fafc">synthetic renders</text>
</g>
<!-- export -->
<g id="node9" class="node">
<title>export</title>
<defs>
<linearGradient id="node9_l_8" gradientUnits="userSpaceOnUse" x1="352.81" y1="-336.59" x2="352.81" y2="-401.12" >
<stop offset="0" style="stop-color:#1d4ed8;stop-opacity:1.;"/>
<stop offset="1" style="stop-color:#1e3a8a;stop-opacity:1.;"/>
</linearGradient>
</defs>
<polygon fill="url(#node9_l_8)" stroke="#dbeafe" stroke-width="2" points="411.27,-401.12 298.35,-401.12 298.35,-397.12 294.35,-397.12 294.35,-393.12 298.35,-393.12 298.35,-344.59 294.35,-344.59 294.35,-340.59 298.35,-340.59 298.35,-336.59 411.27,-336.59 411.27,-401.12"/>
<polyline fill="none" stroke="#dbeafe" stroke-width="2" points="298.35,-397.12 302.35,-397.12 302.35,-393.12 298.35,-393.12"/>
<polyline fill="none" stroke="#dbeafe" stroke-width="2" points="298.35,-344.59 302.35,-344.59 302.35,-340.59 298.35,-340.59"/>
<text xml:space="preserve" text-anchor="middle" x="354.81" y="-379.18" font-family="Arial" font-size="14.00" fill="#f8fafc">Deploy</text>
<text xml:space="preserve" text-anchor="middle" x="354.81" y="-363.43" font-family="Arial" font-size="14.00" fill="#f8fafc">server fallback</text>
<text xml:space="preserve" text-anchor="middle" x="354.81" y="-347.68" font-family="Arial" font-size="14.00" fill="#f8fafc">mobile export</text>
</g>
</g>
</svg>
