<?xml version="1.0" encoding="UTF-8" standalone="no"?>
<!DOCTYPE svg PUBLIC "-//W3C//DTD SVG 1.1//EN"
 "http://www.w3.org/Graphics/SVG/1.1/DTD/svg11.dtd">
<!-- Generated by graphviz version 14.1.1 (20251213.1925)
 -->
<!-- Title: ReadmeTechnicalOverview Pages: 1 -->
<svg width="4703pt" height="801pt"
 viewBox="0.00 0.00 4703.00 801.00" xmlns="http://www.w3.org/2000/svg" xmlns:xlink="http://www.w3.org/1999/xlink">
<g id="graph0" class="graph" transform="scale(3.05556 3.05556) rotate(0) translate(25.2 237.01)">
<title>ReadmeTechnicalOverview</title>
<polygon fill="#111827" stroke="none" points="-25.2,25.2 -25.2,-237.01 1513.98,-237.01 1513.98,25.2 -25.2,25.2"/>
<text xml:space="preserve" text-anchor="middle" x="744.39" y="-181.22" font-family="Arial Bold" font-size="28.00">Connector ID &#45; Camera to Connector Intelligence</text>
<!-- capture&#45;&gt;detect -->
<g id="edge1" class="edge">
<title>capture&#45;&gt;detect</title>
<path fill="none" stroke="#93c5fd" stroke-width="2" d="M111.08,-30.11C130.69,-30.11 153.07,-30.11 173.81,-30.11"/>
<polygon fill="#93c5fd" stroke="#93c5fd" stroke-width="2" points="173.61,-33.08 182.11,-30.11 173.61,-27.13 173.61,-33.08"/>
<text xml:space="preserve" text-anchor="middle" x="148.03" y="-33.16" font-family="Arial" font-size="11.00" fill="#dbeafe">frame</text>
</g>
<!-- detect&#45;&gt;classify -->
<g id="edge2" class="edge">
<title>detect&#45;&gt;classify</title>
<path fill="none" stroke="#93c5fd" stroke-width="2" d="M306.07,-49.18C324.09,-54.95 344.02,-61.33 362.56,-67.26"/>
<polygon fill="#93c5fd" stroke="#93c5fd" stroke-width="2" points="361.4,-70.02 370.4,-69.78 363.22,-64.35 361.4,-70.02"/>
<text xml:space="preserve" text-anchor="middle" x="339.57" y="-66.19" font-family="Arial" font-size="11.00" fill="#dbeafe">crop</text>
</g>
<!-- classify&#45;&gt;verify -->
<g id="edge3" class="edge">
<title>classify&#45;&gt;verify</title>
<path fill="none" stroke="#93c5fd" stroke-width="2" d="M490.43,-91.23C514.64,-92.12 543.21,-93.17 569.44,-94.14"/>
<polygon fill="#93c5fd" stroke="#93c5fd" stroke-width="2" points="569.28,-97.11 577.88,-94.45 569.5,-91.16 569.28,-97.11"/>
<text xml:space="preserve" text-anchor="middle" x="535.6" y="-96.63" font-family="Arial" font-size="11.00" fill="#dbeafe">attributes</text>
</g>
<!-- verify&#45;&gt;decide -->
<g id="edge4" class="edge">
<title>verify&#45;&gt;decide</title>
<path fill="none" stroke="#93c5fd" stroke-width="2" d="M721.3,-100.64C753.81,-102.3 793.44,-104.32 830.31,-106.21"/>
<polygon fill="#93c5fd" stroke="#93c5fd" stroke-width="2" points="829.98,-109.17 838.63,-106.63 830.29,-103.23 829.98,-109.17"/>
<text xml:space="preserve" text-anchor="middle" x="777.01" y="-108.1" font-family="Arial" font-size="11.00" fill="#dbeafe">evidence</text>
</g>
<!-- decide&#45;&gt;result -->
<g id="edge5" class="edge">
<title>decide&#45;&gt;result</title>
<path fill="none" stroke="#93c5fd" stroke-width="2" d="M1050.84,-106.22C1077.51,-104.7 1105.81,-103.08 1131.05,-101.64"/>
<polygon fill="#93c5fd" stroke="#93c5fd" stroke-width="2" points="1131.08,-104.62 1139.4,-101.16 1130.74,-98.68 1131.08,-104.62"/>
<text xml:space="preserve" text-anchor="middle" x="1101.58" y="-107.21" font-family="Arial" font-size="11.00" fill="#dbeafe">answer</text>
</g>
<!-- result&#45;&gt;feedback -->
<g id="edge6" class="edge">
<title>result&#45;&gt;feedback</title>
<path fill="none" stroke="#86efac" stroke-width="2" stroke-dasharray="5,2" d="M1280.54,-76.46C1308.53,-67.97 1340.81,-58.19 1368.47,-49.8"/>
<polygon fill="#86efac" stroke="#86efac" stroke-width="2" points="1369.05,-52.73 1376.32,-47.42 1367.32,-47.04 1369.05,-52.73"/>
<text xml:space="preserve" text-anchor="middle" x="1329.87" y="-70.67" font-family="Arial" font-size="11.00" fill="#dbeafe">corrections</text>
</g>
<!-- feedback&#45;&gt;detect -->
<g id="edge7" class="edge">
<title>feedback&#45;&gt;detect</title>
<path fill="none" stroke="#86efac" stroke-width="2" stroke-dasharray="5,2" d="M1379.17,-19.74C1334.57,-12.13 1269.63,-3.11 1212.41,-3.11 430.77,-3.11 430.77,-3.11 430.77,-3.11 393.01,-3.11 351.34,-8.73 317.2,-14.84"/>
<polygon fill="#86efac" stroke="#86efac" stroke-width="2" points="316.72,-11.9 308.9,-16.37 317.8,-17.75 316.72,-11.9"/>
<text xml:space="preserve" text-anchor="middle" x="777.01" y="-6.16" font-family="Arial" font-size="11.00" fill="#dbeafe">better models</text>
</g>
<!-- capture -->
<g id="node1" class="node">
<title>capture</title>
<defs>
<linearGradient id="node1_l_0" gradientUnits="userSpaceOnUse" x1="53.08" y1="0" x2="53.08" y2="-60.21" >
<stop offset="0" style="stop-color:#2563eb;stop-opacity:1.;"/>
<stop offset="1" style="stop-color:#1e40af;stop-opacity:1.;"/>
</linearGradient>
</defs>
<polygon fill="url(#node1_l_0)" stroke="#dbeafe" stroke-width="2" points="110.16,-60.21 0,-60.21 0,-56.21 -4,-56.21 -4,-52.21 0,-52.21 0,-8 -4,-8 -4,-4 0,-4 0,0 110.16,0 110.16,-60.21"/>
<polyline fill="none" stroke="#dbeafe" stroke-width="2" points="0,-56.21 4,-56.21 4,-52.21 0,-52.21"/>
<polyline fill="none" stroke="#dbeafe" stroke-width="2" points="0,-8 4,-8 4,-4 0,-4"/>
<text xml:space="preserve" text-anchor="middle" x="55.08" y="-40.43" font-family="Arial" font-size="14.00" fill="#f8fafc">Capture</text>
<text xml:space="preserve" text-anchor="middle" x="55.08" y="-24.68" font-family="Arial" font-size="14.00" fill="#f8fafc">mobile camera</text>
<text xml:space="preserve" text-anchor="middle" x="55.08" y="-8.93" font-family="Arial" font-size="14.00" fill="#f8fafc">video / photo</text>
</g>
<!-- detect -->
<g id="node2" class="node">
<title>detect</title>
<defs>
<linearGradient id="node2_l_1" gradientUnits="userSpaceOnUse" x1="245.49" y1="0" x2="245.49" y2="-60.21" >
<stop offset="0" style="stop-color:#0f766e;stop-opacity:1.;"/>
<stop offset="1" style="stop-color:#115e59;stop-opacity:1.;"/>
</linearGradient>
</defs>
<path fill="url(#node2_l_1)" stroke="#dbeafe" stroke-width="2" d="M293.07,-60.21C293.07,-60.21 197.91,-60.21 197.91,-60.21 191.91,-60.21 185.91,-54.21 185.91,-48.21 185.91,-48.21 185.91,-12 185.91,-12 185.91,-6 191.91,0 197.91,0 197.91,0 293.07,0 293.07,0 299.07,0 305.07,-6 305.07,-12 305.07,-12 305.07,-48.21 305.07,-48.21 305.07,-54.21 299.07,-60.21 293.07,-60.21"/>
<text xml:space="preserve" text-anchor="middle" x="245.49" y="-40.43" font-family="Arial" font-size="14.00" fill="#f8fafc">Detect</text>
<text xml:space="preserve" text-anchor="middle" x="245.49" y="-24.68" font-family="Arial" font-size="14.00" fill="#f8fafc">connector boxes</text>
<text xml:space="preserve" text-anchor="middle" x="245.49" y="-8.93" font-family="Arial" font-size="14.00" fill="#f8fafc">multi&#45;instance</text>
</g>
<!-- classify -->
<g id="node3" class="node">
<title>classify</title>
<defs>
<linearGradient id="node3_l_2" gradientUnits="userSpaceOnUse" x1="431.77" y1="-59" x2="431.77" y2="-119.21" >
<stop offset="0" style="stop-color:#7c3aed;stop-opacity:1.;"/>
<stop offset="1" style="stop-color:#5b21b6;stop-opacity:1.;"/>
</linearGradient>
</defs>
<path fill="url(#node3_l_2)" stroke="#dbeafe" stroke-width="2" d="M477.48,-119.21C477.48,-119.21 386.07,-119.21 386.07,-119.21 380.07,-119.21 374.07,-113.21 374.07,-107.21 374.07,-107.21 374.07,-71 374.07,-71 374.07,-65 380.07,-59 386.07,-59 386.07,-59 477.48,-59 477.48,-59 483.48,-59 489.48,-65 489.48,-71 489.48,-71 489.48,-107.21 489.48,-107.21 489.48,-113.21 483.48,-119.21 477.48,-119.21"/>
<text xml:space="preserve" text-anchor="middle" x="431.77" y="-99.43" font-family="Arial" font-size="14.00" fill="#f8fafc">Classify</text>
<text xml:space="preserve" text-anchor="middle" x="431.77" y="-83.68" font-family="Arial" font-size="14.00" fill="#f8fafc">family + polarity</text>
<text xml:space="preserve" text-anchor="middle" x="431.77" y="-67.93" font-family="Arial" font-size="14.00" fill="#f8fafc">gender + shape</text>
</g>
<!-- verify -->
<g id="node4" class="node">
<title>verify</title>
<defs>
<linearGradient id="node4_l_3" gradientUnits="userSpaceOnUse" x1="651.06" y1="-67" x2="651.06" y2="-127.21" >
<stop offset="0" style="stop-color:#b45309;stop-opacity:1.;"/>
<stop offset="1" style="stop-color:#92400e;stop-opacity:1.;"/>
</linearGradient>
</defs>
<path fill="url(#node4_l_3)" stroke="#dbeafe" stroke-width="2" d="M708.39,-127.21C708.39,-127.21 593.73,-127.21 593.73,-127.21 587.73,-127.21 581.73,-121.21 581.73,-115.21 581.73,-115.21 581.73,-79 581.73,-79 581.73,-73 587.73,-67 593.73,-67 593.73,-67 708.39,-67 708.39,-67 714.39,-67 720.39,-73 720.39,-79 720.39,-79 720.39,-115.21 720.39,-115.21 720.39,-121.21 714.39,-127.21 708.39,-127.21"/>
<text xml:space="preserve" text-anchor="middle" x="651.06" y="-107.43" font-family="Arial" font-size="14.00" fill="#f8fafc">Verify</text>
<text xml:space="preserve" text-anchor="middle" x="651.06" y="-91.68" font-family="Arial" font-size="14.00" fill="#f8fafc">geometry + specs</text>
<text xml:space="preserve" text-anchor="middle" x="651.06" y="-75.93" font-family="Arial" font-size="14.00" fill="#f8fafc">3D candidate check</text>
</g>
<!-- decide -->
<g id="node5" class="node">
<title>decide</title>
<defs>
<linearGradient id="node5_l_4" gradientUnits="userSpaceOnUse" x1="946.8" y1="-54.71" x2="946.8" y2="-169.5" >
<stop offset="0" style="stop-color:#dc2626;stop-opacity:1.;"/>
<stop offset="1" style="stop-color:#991b1b;stop-opacity:1.;"/>
</linearGradient>
</defs>
<path fill="url(#node5_l_4)" stroke="#dbeafe" stroke-width="2" d="M936.21,-166.68C936.21,-166.68 844.23,-117.74 844.23,-117.74 838.94,-114.92 838.94,-109.29 844.23,-106.47 844.23,-106.47 936.21,-57.53 936.21,-57.53 941.5,-54.71 952.1,-54.71 957.39,-57.53 957.39,-57.53 1049.37,-106.47 1049.37,-106.47 1054.66,-109.29 1054.66,-114.92 1049.37,-117.74 1049.37,-117.74 957.39,-166.68 957.39,-166.68 952.1,-169.5 941.5,-169.5 936.21,-166.68"/>
<text xml:space="preserve" text-anchor="middle" x="946.8" y="-122.43" font-family="Arial" font-size="14.00" fill="#f8fafc">Decide</text>
<text xml:space="preserve" text-anchor="middle" x="946.8" y="-106.68" font-family="Arial" font-size="14.00" fill="#f8fafc">confident result</text>
<text xml:space="preserve" text-anchor="middle" x="946.8" y="-90.93" font-family="Arial" font-size="14.00" fill="#f8fafc">or ask for angle</text>
</g>
<!-- result -->
<g id="node6" class="node">
<title>result</title>
<defs>
<linearGradient id="node6_l_5" gradientUnits="userSpaceOnUse" x1="1211.41" y1="-67" x2="1211.41" y2="-127.21" >
<stop offset="0" style="stop-color:#16a34a;stop-opacity:1.;"/>
<stop offset="1" style="stop-color:#166534;stop-opacity:1.;"/>
</linearGradient>
</defs>
<polygon fill="url(#node6_l_5)" stroke="#dbeafe" stroke-width="2" points="1273.62,-127.21 1143.21,-127.21 1143.21,-67 1279.62,-67 1279.62,-121.21 1273.62,-127.21"/>
<polyline fill="none" stroke="#dbeafe" stroke-width="2" points="1273.62,-127.21 1273.62,-121.21"/>
<polyline fill="none" stroke="#dbeafe" stroke-width="2" points="1279.62,-121.21 1273.62,-121.21"/>
<text xml:space="preserve" text-anchor="middle" x="1211.41" y="-107.43" font-family="Arial" font-size="14.00" fill="#f8fafc">Output</text>
<text xml:space="preserve" text-anchor="middle" x="1211.41" y="-91.68" font-family="Arial" font-size="14.00" fill="#f8fafc">connector ID</text>
<text xml:space="preserve" text-anchor="middle" x="1211.41" y="-75.93" font-family="Arial" font-size="14.00" fill="#f8fafc">confidence + specs</text>
</g>
<!-- feedback -->
<g id="node7" class="node">
<title>feedback</title>
<defs>
<linearGradient id="node7_l_6" gradientUnits="userSpaceOnUse" x1="1434.45" y1="0" x2="1434.45" y2="-64.21" >
<stop offset="0" style="stop-color:#475569;stop-opacity:1.;"/>
<stop offset="1" style="stop-color:#334155;stop-opacity:1.;"/>
</linearGradient>
</defs>
<polygon fill="url(#node7_l_6)" stroke="#dbeafe" stroke-width="2" points="1488.78,-60.21 1485.78,-64.21 1464.78,-64.21 1461.78,-60.21 1380.12,-60.21 1380.12,0 1488.78,0 1488.78,-60.21"/>
<text xml:space="preserve" text-anchor="middle" x="1434.45" y="-40.43" font-family="Arial" font-size="14.00" fill="#f8fafc">Improve</text>
<text xml:space="preserve" text-anchor="middle" x="1434.45" y="-24.68" font-family="Arial" font-size="14.00" fill="#f8fafc">cloud training</text>
<text xml:space="preserve" text-anchor="middle" x="1434.45" y="-8.93" font-family="Arial" font-size="14.00" fill="#f8fafc">Kaggle / Colab</text>
</g>
</g>
</svg>
