<?xml version="1.0" encoding="UTF-8" standalone="no"?>
<!DOCTYPE svg PUBLIC "-//W3C//DTD SVG 1.1//EN"
 "http://www.w3.org/Graphics/SVG/1.1/DTD/svg11.dtd">
<!-- Generated by graphviz version 14.1.1 (20251213.1925)
 -->
<!-- Title: ConnectorIDReadmeArchitecture Pages: 1 -->
<svg width="696pt" height="628pt"
 viewBox="0.00 0.00 696.00 628.00" xmlns="http://www.w3.org/2000/svg" xmlns:xlink="http://www.w3.org/1999/xlink">
<g id="graph0" class="graph" transform="scale(1 1) rotate(0) translate(18 610.12)">
<title>ConnectorIDReadmeArchitecture</title>
<polygon fill="#f7f9fc" stroke="none" points="-18,18 -18,-610.12 677.64,-610.12 677.64,18 -18,18"/>
<text xml:space="preserve" text-anchor="middle" x="329.82" y="-565.32" font-family="Arial Bold" font-size="24.00">Connector ID &#45; High&#45;Level Architecture</text>
<!-- camera&#45;&gt;app -->
<g id="edge1" class="edge">
<title>camera&#45;&gt;app</title>
<path fill="none" stroke="#56677a" stroke-width="1.5" d="M427.14,-516.58C427.14,-504.66 427.14,-489.2 427.14,-475.79"/>
<polygon fill="#56677a" stroke="#56677a" stroke-width="1.5" points="429.94,-475.86 427.14,-467.86 424.34,-475.86 429.94,-475.86"/>
<text xml:space="preserve" text-anchor="middle" x="443.26" y="-487.6" font-family="Arial" font-size="10.00">capture</text>
</g>
<!-- app&#45;&gt;api -->
<g id="edge2" class="edge">
<title>app&#45;&gt;api</title>
<path fill="none" stroke="#56677a" stroke-width="1.5" d="M379.95,-424.43C365.66,-418.36 349.96,-411.55 335.64,-405.08 311.68,-394.25 285.33,-381.72 263.31,-371.07"/>
<polygon fill="#56677a" stroke="#56677a" stroke-width="1.5" points="264.62,-368.59 256.2,-367.62 262.18,-373.63 264.62,-368.59"/>
<text xml:space="preserve" text-anchor="middle" x="376.89" y="-395.58" font-family="Arial" font-size="10.00">POST image/video</text>
</g>
<!-- app&#45;&gt;feedback -->
<g id="edge9" class="edge">
<title>app&#45;&gt;feedback</title>
<path fill="none" stroke="#5a9b62" stroke-width="1.5" d="M426.1,-424.65C425.81,-418.4 425.53,-411.45 425.39,-405.08 425.23,-398.16 425.29,-390.78 425.45,-383.68"/>
<polygon fill="#5a9b62" stroke="#5a9b62" stroke-width="1.5" points="428.24,-383.92 425.68,-375.84 422.65,-383.75 428.24,-383.92"/>
<text xml:space="preserve" text-anchor="middle" x="488.76" y="-395.58" font-family="Arial" font-size="10.00">confirmed/corrected captures</text>
</g>
<!-- api&#45;&gt;current -->
<g id="edge3" class="edge">
<title>api&#45;&gt;current</title>
<path fill="none" stroke="#56677a" stroke-width="1.5" d="M176.61,-325.35C163.22,-317.73 148.33,-308.5 135.64,-298.81 126.05,-291.48 116.38,-282.74 107.7,-274.29"/>
<polygon fill="#56677a" stroke="#56677a" stroke-width="1.5" points="109.92,-272.55 102.28,-268.9 105.98,-276.52 109.92,-272.55"/>
<text xml:space="preserve" text-anchor="middle" x="167.89" y="-289.31" font-family="Arial" font-size="10.00">preserved path</text>
</g>
<!-- api&#45;&gt;planned -->
<g id="edge4" class="edge">
<title>api&#45;&gt;planned</title>
<path fill="none" stroke="#b98200" stroke-width="1.5" stroke-dasharray="5,2" d="M248.37,-325.33C274.33,-310.46 310.56,-289.71 340.64,-272.47"/>
<polygon fill="#b98200" stroke="#b98200" stroke-width="1.5" points="341.83,-275.01 347.38,-268.61 339.05,-270.16 341.83,-275.01"/>
<text xml:space="preserve" text-anchor="middle" x="330.47" y="-289.31" font-family="Arial" font-size="10.00">new path</text>
</g>
<!-- current&#45;&gt;result -->
<g id="edge5" class="edge">
<title>current&#45;&gt;result</title>
<path fill="none" stroke="#56677a" stroke-width="1.5" d="M67.72,-212.02C60.26,-182.68 53.91,-135.76 78.14,-106.27 111.8,-65.3 251.33,-44.81 348.04,-35.34"/>
<polygon fill="#56677a" stroke="#56677a" stroke-width="1.5" points="348.18,-38.14 355.87,-34.59 347.64,-32.56 348.18,-38.14"/>
<text xml:space="preserve" text-anchor="middle" x="97.64" y="-129.91" font-family="Arial" font-size="10.00">old fields</text>
</g>
<!-- planned&#45;&gt;specs -->
<g id="edge6" class="edge">
<title>planned&#45;&gt;specs</title>
<path fill="none" stroke="#b98200" stroke-width="1.5" stroke-dasharray="5,2" d="M408.5,-211.82C414.32,-199.17 421.35,-183.91 427.62,-170.28"/>
<polygon fill="#b98200" stroke="#b98200" stroke-width="1.5" points="430.07,-171.67 430.87,-163.23 424.98,-169.32 430.07,-171.67"/>
<text xml:space="preserve" text-anchor="middle" x="460.95" y="-183.04" font-family="Arial" font-size="10.00">family + attributes</text>
</g>
<!-- planned&#45;&gt;deploy -->
<g id="edge11" class="edge">
<title>planned&#45;&gt;deploy</title>
<path fill="none" stroke="#8c67aa" stroke-width="1.5" stroke-dasharray="5,2" d="M353.39,-211.82C331.41,-198.02 304.47,-181.09 281.38,-166.59"/>
<polygon fill="#8c67aa" stroke="#8c67aa" stroke-width="1.5" points="282.93,-164.26 274.67,-162.37 279.95,-169 282.93,-164.26"/>
<text xml:space="preserve" text-anchor="middle" x="355.24" y="-183.04" font-family="Arial" font-size="10.00">approved models</text>
</g>
<!-- specs&#45;&gt;result -->
<g id="edge7" class="edge">
<title>specs&#45;&gt;result</title>
<path fill="none" stroke="#5a9b62" stroke-width="1.5" d="M444.14,-105.55C444.14,-93.15 444.14,-78.22 444.14,-64.8"/>
<polygon fill="#5a9b62" stroke="#5a9b62" stroke-width="1.5" points="446.94,-65.17 444.14,-57.17 441.34,-65.17 446.94,-65.17"/>
<text xml:space="preserve" text-anchor="middle" x="476.39" y="-76.77" font-family="Arial" font-size="10.00">spec summary</text>
</g>
<!-- result&#45;&gt;app -->
<g id="edge8" class="edge">
<title>result&#45;&gt;app</title>
<path fill="none" stroke="#56677a" stroke-width="1.5" d="M513.71,-54.92C544.62,-71.77 574.14,-97.11 574.14,-132.41 574.14,-346.94 574.14,-346.94 574.14,-346.94 574.14,-374.13 574.55,-386.05 555.14,-405.08 546.02,-414.02 534.91,-420.92 523.09,-426.24"/>
<polygon fill="#56677a" stroke="#56677a" stroke-width="1.5" points="522.36,-423.52 516.03,-429.15 524.49,-428.69 522.36,-423.52"/>
<text xml:space="preserve" text-anchor="middle" x="616.89" y="-236.18" font-family="Arial" font-size="10.00">display + correction</text>
</g>
<!-- feedback&#45;&gt;planned -->
<g id="edge10" class="edge">
<title>feedback&#45;&gt;planned</title>
<path fill="none" stroke="#5a9b62" stroke-width="1.5" stroke-dasharray="5,2" d="M419.16,-318.09C415.43,-305.57 410.94,-290.47 406.92,-276.95"/>
<polygon fill="#5a9b62" stroke="#5a9b62" stroke-width="1.5" points="409.71,-276.48 404.74,-269.61 404.34,-278.08 409.71,-276.48"/>
<text xml:space="preserve" text-anchor="middle" x="441.82" y="-289.31" font-family="Arial" font-size="10.00">train/evaluate</text>
</g>
<!-- deploy&#45;&gt;api -->
<g id="edge12" class="edge">
<title>deploy&#45;&gt;api</title>
<path fill="none" stroke="#56677a" stroke-width="1.5" d="M228.12,-160.96C225.13,-200.4 219.52,-274.18 216.39,-315.32"/>
<polygon fill="#56677a" stroke="#56677a" stroke-width="1.5" points="213.6,-315.06 215.79,-323.25 219.19,-315.49 213.6,-315.06"/>
<text xml:space="preserve" text-anchor="middle" x="235.99" y="-236.18" font-family="Arial" font-size="10.00">serve</text>
</g>
<!-- camera -->
<g id="node1" class="node">
<title>camera</title>
<defs>
<linearGradient id="node1_l_0" gradientUnits="userSpaceOnUse" x1="427.14" y1="-517.1" x2="427.14" y2="-561.12" >
<stop offset="0" style="stop-color:#efe6ff;stop-opacity:1.;"/>
<stop offset="1" style="stop-color:#fbf8ff;stop-opacity:1.;"/>
</linearGradient>
</defs>
<polygon fill="url(#node1_l_0)" stroke="#2f3b52" stroke-width="1.5" points="501.78,-557.12 498.78,-561.12 477.78,-561.12 474.78,-557.12 352.5,-557.12 352.5,-517.1 501.78,-517.1 501.78,-557.12"/>
<text xml:space="preserve" text-anchor="middle" x="427.14" y="-539.96" font-family="Arial" font-size="12.00">Camera / Gallery</text>
<text xml:space="preserve" text-anchor="middle" x="427.14" y="-525.71" font-family="Arial" font-size="12.00">photo, video, desktop file</text>
</g>
<!-- app -->
<g id="node2" class="node">
<title>app</title>
<defs>
<linearGradient id="node2_l_1" gradientUnits="userSpaceOnUse" x1="425.14" y1="-425.08" x2="425.14" y2="-465.1" >
<stop offset="0" style="stop-color:#cfe6ff;stop-opacity:1.;"/>
<stop offset="1" style="stop-color:#f8fbff;stop-opacity:1.;"/>
</linearGradient>
</defs>
<polygon fill="url(#node2_l_1)" stroke="#2f3b52" stroke-width="1.5" points="513.4,-465.1 340.88,-465.1 340.88,-461.1 336.88,-461.1 336.88,-457.1 340.88,-457.1 340.88,-433.08 336.88,-433.08 336.88,-429.08 340.88,-429.08 340.88,-425.08 513.4,-425.08 513.4,-465.1"/>
<polyline fill="none" stroke="#2f3b52" stroke-width="1.5" points="340.88,-461.1 344.88,-461.1 344.88,-457.1 340.88,-457.1"/>
<polyline fill="none" stroke="#2f3b52" stroke-width="1.5" points="340.88,-433.08 344.88,-433.08 344.88,-429.08 340.88,-429.08"/>
<text xml:space="preserve" text-anchor="middle" x="427.14" y="-447.94" font-family="Arial" font-size="12.00">Flutter App</text>
<text xml:space="preserve" text-anchor="middle" x="427.14" y="-433.69" font-family="Arial" font-size="12.00">mobile now, desktop planned</text>
</g>
<!-- api -->
<g id="node3" class="node">
<title>api</title>
<defs>
<linearGradient id="node3_l_2" gradientUnits="userSpaceOnUse" x1="214.14" y1="-325.94" x2="214.14" y2="-365.95" >
<stop offset="0" style="stop-color:#d9ecff;stop-opacity:1.;"/>
<stop offset="1" style="stop-color:#f7fbff;stop-opacity:1.;"/>
</linearGradient>
</defs>
<path fill="url(#node3_l_2)" stroke="#2f3b52" stroke-width="1.5" d="M283.9,-365.95C283.9,-365.95 144.38,-365.95 144.38,-365.95 138.38,-365.95 132.38,-359.95 132.38,-353.95 132.38,-353.95 132.38,-337.94 132.38,-337.94 132.38,-331.94 138.38,-325.94 144.38,-325.94 144.38,-325.94 283.9,-325.94 283.9,-325.94 289.9,-325.94 295.9,-331.94 295.9,-337.94 295.9,-337.94 295.9,-353.95 295.9,-353.95 295.9,-359.95 289.9,-365.95 283.9,-365.95"/>
<text xml:space="preserve" text-anchor="middle" x="214.14" y="-348.8" font-family="Arial" font-size="12.00">FastAPI Service</text>
<text xml:space="preserve" text-anchor="middle" x="214.14" y="-334.55" font-family="Arial" font-size="12.00">/predict remains compatible</text>
</g>
<!-- current -->
<g id="node4" class="node">
<title>current</title>
<defs>
<linearGradient id="node4_l_3" gradientUnits="userSpaceOnUse" x1="76.14" y1="-212.54" x2="76.14" y2="-266.81" >
<stop offset="0" style="stop-color:#d9ecff;stop-opacity:1.;"/>
<stop offset="1" style="stop-color:#f7fbff;stop-opacity:1.;"/>
</linearGradient>
</defs>
<path fill="url(#node4_l_3)" stroke="#2f3b52" stroke-width="1.5" d="M140.28,-266.81C140.28,-266.81 12,-266.81 12,-266.81 6,-266.81 0,-260.81 0,-254.81 0,-254.81 0,-224.54 0,-224.54 0,-218.54 6,-212.54 12,-212.54 12,-212.54 140.28,-212.54 140.28,-212.54 146.28,-212.54 152.28,-218.54 152.28,-224.54 152.28,-224.54 152.28,-254.81 152.28,-254.81 152.28,-260.81 146.28,-266.81 140.28,-266.81"/>
<text xml:space="preserve" text-anchor="middle" x="76.14" y="-249.65" font-family="Arial" font-size="12.00">Current Baseline</text>
<text xml:space="preserve" text-anchor="middle" x="76.14" y="-235.4" font-family="Arial" font-size="12.00">Hough crop + rembg gate</text>
<text xml:space="preserve" text-anchor="middle" x="76.14" y="-221.15" font-family="Arial" font-size="12.00">ResNet&#45;18 classifier</text>
</g>
<!-- planned -->
<g id="node5" class="node">
<title>planned</title>
<defs>
<linearGradient id="node5_l_4" gradientUnits="userSpaceOnUse" x1="396.14" y1="-212.54" x2="396.14" y2="-266.81" >
<stop offset="0" style="stop-color:#fff1cc;stop-opacity:1.;"/>
<stop offset="1" style="stop-color:#fffaf0;stop-opacity:1.;"/>
</linearGradient>
</defs>
<path fill="url(#node5_l_4)" stroke="#2f3b52" stroke-width="1.5" d="M492.15,-266.81C492.15,-266.81 300.12,-266.81 300.12,-266.81 294.12,-266.81 288.12,-260.81 288.12,-254.81 288.12,-254.81 288.12,-224.54 288.12,-224.54 288.12,-218.54 294.12,-212.54 300.12,-212.54 300.12,-212.54 492.15,-212.54 492.15,-212.54 498.15,-212.54 504.15,-218.54 504.15,-224.54 504.15,-224.54 504.15,-254.81 504.15,-254.81 504.15,-260.81 498.15,-266.81 492.15,-266.81"/>
<text xml:space="preserve" text-anchor="middle" x="396.14" y="-249.65" font-family="Arial" font-size="12.00">Roadmap Vision Pipeline</text>
<text xml:space="preserve" text-anchor="middle" x="396.14" y="-235.4" font-family="Arial" font-size="12.00">object detector + multi&#45;head attributes</text>
<text xml:space="preserve" text-anchor="middle" x="396.14" y="-221.15" font-family="Arial" font-size="12.00">measurement assist + abstention</text>
</g>
<!-- specs -->
<g id="node6" class="node">
<title>specs</title>
<defs>
<linearGradient id="node6_l_5" gradientUnits="userSpaceOnUse" x1="444.14" y1="-106.27" x2="444.14" y2="-164.54" >
<stop offset="0" style="stop-color:#e5f7e7;stop-opacity:1.;"/>
<stop offset="1" style="stop-color:#f8fff8;stop-opacity:1.;"/>
</linearGradient>
</defs>
<polygon fill="url(#node6_l_5)" stroke="#2f3b52" stroke-width="1.5" points="530.4,-160.54 527.4,-164.54 506.4,-164.54 503.4,-160.54 357.88,-160.54 357.88,-106.27 530.4,-106.27 530.4,-160.54"/>
<text xml:space="preserve" text-anchor="middle" x="444.14" y="-143.38" font-family="Arial" font-size="12.00">Taxonomy + Spec Lookup</text>
<text xml:space="preserve" text-anchor="middle" x="444.14" y="-129.13" font-family="Arial" font-size="12.00">connectors.yaml</text>
<text xml:space="preserve" text-anchor="middle" x="444.14" y="-114.88" font-family="Arial" font-size="12.00">family, polarity, gender, specs</text>
</g>
<!-- result -->
<g id="node7" class="node">
<title>result</title>
<defs>
<linearGradient id="node7_l_6" gradientUnits="userSpaceOnUse" x1="444.14" y1="0" x2="444.14" y2="-54.27" >
<stop offset="0" style="stop-color:#fff1cc;stop-opacity:1.;"/>
<stop offset="1" style="stop-color:#fffaf0;stop-opacity:1.;"/>
</linearGradient>
</defs>
<path fill="url(#node7_l_6)" stroke="#2f3b52" stroke-width="1.5" d="M517.65,-54.27C517.65,-54.27 370.62,-54.27 370.62,-54.27 364.62,-54.27 358.62,-48.27 358.62,-42.27 358.62,-42.27 358.62,-12 358.62,-12 358.62,-6 364.62,0 370.62,0 370.62,0 517.65,0 517.65,0 523.65,0 529.65,-6 529.65,-12 529.65,-12 529.65,-42.27 529.65,-42.27 529.65,-48.27 523.65,-54.27 517.65,-54.27"/>
<text xml:space="preserve" text-anchor="middle" x="444.14" y="-37.11" font-family="Arial" font-size="12.00">Result Card</text>
<text xml:space="preserve" text-anchor="middle" x="444.14" y="-22.86" font-family="Arial" font-size="12.00">connector type, confidence,</text>
<text xml:space="preserve" text-anchor="middle" x="444.14" y="-8.61" font-family="Arial" font-size="12.00">warnings, alternatives, specs</text>
</g>
<!-- feedback -->
<g id="node8" class="node">
<title>feedback</title>
<defs>
<linearGradient id="node8_l_7" gradientUnits="userSpaceOnUse" x1="427.14" y1="-318.81" x2="427.14" y2="-377.08" >
<stop offset="0" style="stop-color:#e5f7e7;stop-opacity:1.;"/>
<stop offset="1" style="stop-color:#f8fff8;stop-opacity:1.;"/>
</linearGradient>
</defs>
<polygon fill="url(#node8_l_7)" stroke="#2f3b52" stroke-width="1.5" points="529.15,-373.08 526.15,-377.08 505.15,-377.08 502.15,-373.08 325.12,-373.08 325.12,-318.81 529.15,-318.81 529.15,-373.08"/>
<text xml:space="preserve" text-anchor="middle" x="427.14" y="-355.92" font-family="Arial" font-size="12.00">Data Feedback Loop</text>
<text xml:space="preserve" text-anchor="middle" x="427.14" y="-341.67" font-family="Arial" font-size="12.00">Contribute captures &#45;&gt; training data</text>
<text xml:space="preserve" text-anchor="middle" x="427.14" y="-327.42" font-family="Arial" font-size="12.00">holdout set &#45;&gt; evaluation reports</text>
</g>
<!-- deploy -->
<g id="node9" class="node">
<title>deploy</title>
<defs>
<linearGradient id="node9_l_8" gradientUnits="userSpaceOnUse" x1="228.14" y1="-106.27" x2="228.14" y2="-160.54" >
<stop offset="0" style="stop-color:#efe6ff;stop-opacity:1.;"/>
<stop offset="1" style="stop-color:#fbf8ff;stop-opacity:1.;"/>
</linearGradient>
</defs>
<polygon fill="url(#node9_l_8)" stroke="#2f3b52" stroke-width="1.5" points="328.4,-160.54 131.88,-160.54 131.88,-156.54 127.88,-156.54 127.88,-152.54 131.88,-152.54 131.88,-114.27 127.88,-114.27 127.88,-110.27 131.88,-110.27 131.88,-106.27 328.4,-106.27 328.4,-160.54"/>
<polyline fill="none" stroke="#2f3b52" stroke-width="1.5" points="131.88,-156.54 135.88,-156.54 135.88,-152.54 131.88,-152.54"/>
<polyline fill="none" stroke="#2f3b52" stroke-width="1.5" points="131.88,-114.27 135.88,-114.27 135.88,-110.27 131.88,-110.27"/>
<text xml:space="preserve" text-anchor="middle" x="230.14" y="-143.38" font-family="Arial" font-size="12.00">Deployment Targets</text>
<text xml:space="preserve" text-anchor="middle" x="230.14" y="-129.13" font-family="Arial" font-size="12.00">server fallback now</text>
<text xml:space="preserve" text-anchor="middle" x="230.14" y="-114.88" font-family="Arial" font-size="12.00">ONNX / TFLite / Core ML planned</text>
</g>
</g>
</svg>
